<svg width="512" height="512" viewBox="0 0 512 512" fill="none" xmlns="http://www.w3.org/2000/svg">
  <rect width="512" height="512" rx="144" fill="url(#bg)"/>
  <circle cx="256" cy="170" r="38" fill="#FFF2C4"/>
  <path d="M198 231C198 214.431 211.431 201 228 201H284C300.569 201 314 214.431 314 231V254C314 270.569 300.569 284 284 284H228C211.431 284 198 270.569 198 254V231Z" fill="#FFF7D8"/>
  <path d="M176 286C176 249.549 205.549 220 242 220H270C306.451 220 336 249.549 336 286V294H176V286Z" fill="url(#speaker)"/>
  <path d="M116 326C116 306.118 132.118 290 152 290H360C379.882 290 396 306.118 396 326V329C396 348.882 379.882 365 360 365H152C132.118 365 116 348.882 116 329V326Z" fill="url(#stage)"/>
  <path d="M173 328C173 307.565 189.565 291 210 291H302C322.435 291 339 307.565 339 328V365H173V328Z" fill="#123A3C" fill-opacity="0.45"/>
  <path d="M154 379H358C358 411.033 312.333 437 256 437C199.667 437 154 411.033 154 379Z" fill="#0D2427" fill-opacity="0.58"/>
  <path d="M136 154C153.472 154 167.636 168.164 167.636 185.636V204.051C167.636 221.523 153.472 235.687 136 235.687C118.528 235.687 104.364 221.523 104.364 204.051V185.636C104.364 168.164 118.528 154 136 154Z" fill="#F0FFFC" fill-opacity="0.88"/>
  <path d="M376 154C393.472 154 407.636 168.164 407.636 185.636V204.051C407.636 221.523 393.472 235.687 376 235.687C358.528 235.687 344.364 221.523 344.364 204.051V185.636C344.364 168.164 358.528 154 376 154Z" fill="#F0FFFC" fill-opacity="0.88"/>
  <path d="M133 261C104.833 261 82 238.167 82 210V204.5C82 176.333 104.833 153.5 133 153.5H136V174.5H133C116.431 174.5 103 187.931 103 204.5V210C103 226.569 116.431 240 133 240H173V261H133Z" fill="#7AE3D3"/>
  <path d="M379 261H339V240H379C395.569 240 409 226.569 409 210V204.5C409 187.931 395.569 174.5 379 174.5H376V153.5H379C407.167 153.5 430 176.333 430 204.5V210C430 238.167 407.167 261 379 261Z" fill="#7AE3D3"/>
  <path d="M224 125L231.177 139.823L246 147L231.177 154.177L224 169L216.823 154.177L202 147L216.823 139.823L224 125Z" fill="#FFD37A"/>
  <path d="M320 104L325.714 115.286L337 121L325.714 126.714L320 138L314.286 126.714L303 121L314.286 115.286L320 104Z" fill="#FFD37A"/>
  <defs>
    <linearGradient id="bg" x1="74" y1="62" x2="426" y2="450" gradientUnits="userSpaceOnUse">
      <stop stop-color="#173535"/>
      <stop offset="0.42" stop-color="#255052"/>
      <stop offset="1" stop-color="#0E1C22"/>
    </linearGradient>
    <linearGradient id="speaker" x1="188" y1="230" x2="329" y2="327" gradientUnits="userSpaceOnUse">
      <stop stop-color="#FFD37A"/>
      <stop offset="1" stop-color="#FFB84D"/>
    </linearGradient>
    <linearGradient id="stage" x1="133" y1="287" x2="379" y2="379" gradientUnits="userSpaceOnUse">
      <stop stop-color="#7AE3D3"/>
      <stop offset="1" stop-color="#2BB0A7"/>
    </linearGradient>
  </defs>
</svg>
