<?xml version="1.0" encoding="UTF-8"?>
<!DOCTYPE svg PUBLIC "-//W3C//DTD SVG 1.1//EN" "http://www.w3.org/Graphics/SVG/1.1/DTD/svg11.dtd">
<!-- Creator: CorelDRAW -->
<svg xmlns="http://www.w3.org/2000/svg" xml:space="preserve" width="159.861mm" height="159.861mm" style="shape-rendering:geometricPrecision; text-rendering:geometricPrecision; image-rendering:optimizeQuality; fill-rule:evenodd; clip-rule:evenodd"
viewBox="0 0 150.741 150.741"
 xmlns:xlink="http://www.w3.org/1999/xlink">
 <defs>
  <style type="text/css">
   <![CDATA[
    .fil12 {fill:none}
    .fil1 {fill:white}
    .fil4 {fill:#1E2D41}
    .fil14 {fill:#4E8594}
    .fil15 {fill:#AA847C}
    .fil13 {fill:#E04A57}
    .fil16 {fill:#F2BD8E}
    .fil0 {fill:#FBE2B5}
    .fil3 {fill:#141516}
    .fil6 {fill:white;fill-rule:nonzero}
    .fil2 {fill:#1E2D41;fill-rule:nonzero}
    .fil17 {fill:#71B4BC;fill-rule:nonzero}
    .fil10 {fill:#76B4BC;fill-rule:nonzero}
    .fil7 {fill:#952649;fill-rule:nonzero}
    .fil18 {fill:#C7E4D4;fill-rule:nonzero}
    .fil9 {fill:#D97B33;fill-rule:nonzero}
    .fil11 {fill:#DB515C;fill-rule:nonzero}
    .fil8 {fill:#F4BC6A;fill-rule:nonzero}
    .fil5 {fill:#141516;fill-rule:nonzero}
   ]]>
  </style>
    <mask id="id0">
  <linearGradient id="id1" gradientUnits="userSpaceOnUse" x1="74.9234" y1="112.162" x2="75.818" y2="38.5793">
   <stop offset="0" style="stop-opacity:1; stop-color:white"/>
   <stop offset="1" style="stop-opacity:0; stop-color:white"/>
  </linearGradient>
     <rect style="fill:url(#id1)" x="20.1934" y="20.1933" width="110.355" height="110.355"/>
    </mask>
    <mask id="id2">
  <linearGradient id="id3" gradientUnits="userSpaceOnUse" x1="48.4377" y1="50.9907" x2="50.2221" y2="107.15">
   <stop offset="0" style="stop-opacity:1; stop-color:white"/>
   <stop offset="1" style="stop-opacity:0; stop-color:white"/>
  </linearGradient>
     <rect style="fill:url(#id3)" x="45.7863" y="50.9776" width="7.08714" height="56.1849"/>
    </mask>
 </defs>
 <g id="图层_x0020_1">
  <metadata id="CorelCorpID_0Corel-Layer"/>
  <polygon class="fil0" points="-0,0 150.741,0 150.741,150.741 -0,150.741 "/>
  <g id="_150794424">
   <path id="_154090024" class="fil1" style="mask:url(#id0)" d="M75.3707 20.2876c30.4164,0 55.083,24.6666 55.083,55.083 0,30.4164 -24.6666,55.083 -55.083,55.083 -30.4164,0 -55.083,-24.6666 -55.083,-55.083 0,-30.4164 24.6666,-55.083 55.083,-55.083z"/>
   <path id="_154089952" class="fil2" d="M50.6912 38.1037c-0.581708,0.373315 -1.35606,0.204527 -1.72938,-0.377181 -0.373315,-0.581708 -0.204527,-1.35606 0.377181,-1.72938l1.40368 -0.905895c0.581708,-0.373315 1.35606,-0.204527 1.72938,0.377181 0.373315,0.581708 0.204527,1.35606 -0.377181,1.72938l-1.40368 0.905895z"/>
   <path id="_154089880" class="fil3" d="M38.6021 35.3358l0 0c0.556814,0 1.01235,0.455541 1.01235,1.01235l0 6.3143c0,0.498916 0.0220651,1.14107 -0.0882604,1.61905 -0.156153,0.676097 -0.682227,1.2942 -1.44319,1.59331 -1.15389,0.453466 -2.4117,0.0020745 -2.80877,-1.00821 -0.396983,-1.01028 0.216785,-2.19736 1.37077,-2.65083 0.31372,-0.123338 0.635079,-0.179538 0.944745,-0.176049l0 -5.69157c0,-0.556814 0.455541,-1.01235 1.01235,-1.01235z"/>
   <path id="_154090216" class="fil4" d="M66.2398 30.6383l0 0c0.4744,0 0.862613,0.368789 0.862613,0.819615l0 5.11241c0,0.403961 0.0187648,0.923811 -0.0752477,1.3108 -0.133051,0.547479 -0.581331,1.0479 -1.22971,1.29005 -0.983217,0.367186 -2.05507,0.00169732 -2.3934,-0.816314 -0.338237,-0.817917 0.184724,-1.77907 1.16804,-2.14626 0.267327,-0.0998587 0.541161,-0.145309 0.804999,-0.14248l0 -4.60821c0,-0.450826 0.388214,-0.819615 0.862708,-0.819615z"/>
   <path id="_154090288" class="fil5" d="M86.2746 29.9206c0,-0.572844 0.464404,-1.03725 1.03725,-1.03725 0.513909,0 0.940501,0.373881 1.02282,0.864405l8.69035 -2.76625c0.543707,-0.172278 1.12428,0.128807 1.29656,0.672514 0.0329091,0.103725 0.0483735,0.208676 0.0484678,0.312023l0.000188591 0 0.00612919 7.4498c0.000565772,0.697597 0.0202735,1.39199 -0.186328,2.06884 -0.0434701,0.142292 -0.0950497,0.279586 -0.155493,0.410656 -0.369543,0.801982 -1.06969,1.38161 -2.24659,1.55069 -1.44536,0.207544 -2.61773,-0.634607 -2.61773,-1.88091 0,-1.2463 1.17237,-2.42546 2.61773,-2.6332 0.178595,-0.0256483 0.353042,-0.0351721 0.521642,-0.0299859l-0.00462047 -5.52354 -7.95588 2.53249 0 5.48742c0,0.481378 0.0105611,0.760209 0.0105611,1.18048 0,1.2463 -1.19463,2.42546 -2.66771,2.6331 -1.47308,0.207733 -2.66771,-0.634607 -2.66771,-1.88091 0,-1.2463 1.19463,-2.42546 2.66771,-2.6332 0.200189,-0.0281943 0.395097,-0.0368695 0.582651,-0.0279114l0 -0.538238 -0.0126356 -4.96917c0,-0.0550685 0.00433758,-0.109194 0.0126356,-0.161905l0 -1.07996z"/>
   <path id="_154090192" class="fil2" d="M115.188 40.5219c0.450354,0.122584 0.715984,0.587177 0.5934,1.03753 -0.122584,0.450354 -0.587177,0.715984 -1.03753,0.5934 -0.498916,-0.1372 -1.41207,-0.483075 -2.24791,-0.985952l-0.0709101 -0.0431872 0.00216879 3.49647c0.000188591,0.413296 0.0258369,0.963415 -0.0743047,1.36662 -0.198774,0.801227 -0.970676,1.42094 -1.89222,1.45347 -1.07214,0.0379067 -1.94182,-0.733335 -1.94182,-1.72221 0,-0.988875 0.869591,-1.8216 1.94182,-1.8595 0.0934466,-0.00330034 0.185385,-0.000282886 0.275342,0.00829799l-0.00282886 -4.50053c-0.0219708,-0.280529 0.0959926,-0.56596 0.338143,-0.746724 0.375295,-0.280057 0.906744,-0.202923 1.1868,0.172372 0.257898,0.345121 0.667705,0.65903 1.10627,0.922962 0.694202,0.417728 1.42857,0.698351 1.82358,0.806979z"/>
   <path id="_154090096" class="fil5" d="M58.3849 113.603l-5.75909 0.00820369 -0.289864 0.000942953c-1.36653,0.00537483 -2.58624,0.0100896 -4.01755,-0.591892 -1.98586,-0.835456 -3.14475,-2.25121 -3.80793,-3.93306 -0.615654,-1.56144 -0.77473,-3.33032 -0.781802,-5.04489l-0.0551628 -13.0811c-0.915702,0.324282 -1.73862,0.552288 -2.47751,0.69788 -1.33645,0.263272 -2.43621,0.268364 -3.34013,0.0897691 -1.02725,-0.202923 -1.85356,-0.603961 -2.4893,-1.13899 -0.6744,-0.567658 -1.11947,-1.27176 -1.35314,-2.04583 -0.225837,-0.748328 -0.251108,-1.55484 -0.0926923,-2.35653 0.194437,-0.98416 0.672326,-1.97181 1.39849,-2.83461 2.32579,-2.76304 6.76965,-4.88204 8.29884,-5.55729l-0.0710044 -16.8252c-0.00103725,-0.252334 -0.00443188,-0.51655 -0.00773221,-0.777088 -0.0317775,-2.51759 -0.0595946,-4.73108 1.73654,-7.12929 1.14437,-1.52787 2.62971,-2.5819 4.29374,-3.34315 1.6067,-0.734938 3.35427,-1.1885 5.10807,-1.53513 6.6084,-1.30561 13.0673,-2.07695 19.5474,-2.23734 6.4812,-0.160302 12.9573,0.292033 19.5953,1.43404 1.45535,0.250354 2.85404,0.532108 4.13098,0.845735 1.18642,0.291467 2.25413,0.607639 3.14843,0.948234 1.98463,0.755777 3.03093,1.80736 3.59331,3.16182 0.520699,1.25394 0.554645,2.65385 0.552099,4.3059 -0.0107497,7.09025 -0.0214993,14.1584 -0.032249,21.2386 0.0446017,0.010844 0.0890148,0.0244225 0.133051,0.0408299 0.0194248,0.00716644 6.7721,2.49138 9.28413,6.15607 0.271759,0.396512 0.484961,0.823481 0.639134,1.26629 0.347855,0.998587 0.386139,2.06799 0.116078,3.04282 -0.278548,1.00585 -0.879681,1.91061 -1.80264,2.54305 -0.333522,0.22876 -0.711269,0.420934 -1.13258,0.567658 -0.924094,0.322018 -2.14399,0.470156 -3.74598,0.247148 -0.99887,-0.139086 -2.16078,-0.423763 -3.5109,-0.905329l-0.0185762 12.2138c-0.00358322,2.41358 0.450449,4.93843 -0.837531,7.14975 -0.709572,1.21839 -1.86884,2.30297 -3.18303,2.81302 -1.58605,0.615654 -3.39887,0.524848 -4.92118,0.514947 -0.200943,-0.00122584 -0.402547,-0.00254597 -0.60085,-0.00235738l-3.46233 0.00480906c-0.481378,1.69298 -1.32315,3.29685 -2.3307,4.56804 -0.817352,1.03131 -1.68279,1.80887 -2.5489,2.31382 -0.976899,0.569544 -1.96549,0.799718 -2.91071,0.670251 -1.37124,-0.187931 -2.54852,-1.08741 -3.36276,-2.47016 -0.71523,-1.21452 -1.1554,-2.82858 -1.17945,-4.64763l-9.42953e-005 -0.00707215 0 -0.0281c0.0019802,-0.128902 0.00518624,-0.256106 0.00952383,-0.381802l-9.15211 0.0130128c0.00414899,0.121452 0.00726074,0.244319 0.00914664,0.368789l0 0.0281 -9.42953e-005 0.00707215c-0.0240453,1.81905 -0.464216,3.4331 -1.17945,4.64763 -0.81424,1.38275 -1.99152,2.28223 -3.36276,2.47016 -0.945216,0.129467 -1.93381,-0.100707 -2.91071,-0.670251 -0.866102,-0.504951 -1.73154,-1.28251 -2.5489,-2.31382 -0.998021,-1.25922 -1.83329,-2.84498 -2.31693,-4.52023z"/>
   <path id="_154090048" class="fil6" d="M69.1768 107.644c1.36568,-0.0473362 8.96003,-0.295239 12.2279,-0.0698728 0.480435,-0.818483 0.937767,-1.37897 1.50656,-1.90231 -5.97398,-0.373787 -10.9212,-0.362188 -15.3559,-0.150778 0.644131,0.560963 1.08468,1.19029 1.62141,2.12296z"/>
   <path id="_154089928" class="fil6" d="M51.1163 107.618c0.0494107,0.436776 0.303348,0.413013 1.18077,0.302971 1.08015,-0.135597 3.35078,-0.346064 4.71335,-0.4496 0.575013,-0.0436587 1.09005,0.00839228 1.4712,-0.0321547 0.176049,-0.420368 0.460633,-0.967564 0.701274,-1.33249 -3.6414,0.443094 -6.53052,1.15512 -8.06659,1.51127z"/>
   <path id="_154089592" class="fil7" d="M70.4502 111.238l9.64311 -0.0136728c0.107214,-0.585008 0.244885,-1.12541 0.406979,-1.62443 -2.99633,-0.125224 -8.225,0.0142386 -10.4328,0.0834513 0.151815,0.479492 0.281,0.99689 0.382745,1.55465z"/>
   <path id="_154089256" class="fil8" d="M105.209 80.4157l-0.0120698 7.93552c1.53635,0.607167 2.79652,0.942199 3.82943,1.0859 1.19114,0.165771 2.04234,0.0751534 2.65008,-0.136634 0.214616,-0.0747762 0.408299,-0.173503 0.580199,-0.291372 0.439982,-0.301462 0.728148,-0.738144 0.863273,-1.22612 0.143706,-0.518718 0.120415,-1.09628 -0.0700614,-1.6431 -0.085243,-0.244791 -0.206224,-0.485338 -0.362848,-0.71391 -1.66035,-2.42226 -5.83254,-4.32863 -7.47799,-5.01029z"/>
   <path id="_154089568" class="fil8" d="M43.663 88.4577l-0.0340406 -8.05744c-1.79038,0.855353 -4.85017,2.50637 -6.51411,4.48327 -0.460633,0.54729 -0.762283,1.16587 -0.882698,1.77567 -0.0857144,0.433758 -0.0761906,0.856484 0.0374352,1.2331 0.105894,0.350967 0.3058,0.668648 0.607262,0.922397 0.33456,0.281566 0.806508,0.499954 1.43037,0.623198 0.621029,0.122678 1.41905,0.110797 2.43753,-0.0897691 0.84036,-0.165583 1.80717,-0.45356 2.91825,-0.890431z"/>
   <path id="_154089328" class="fil9" d="M43.663 88.4577l-0.0107497 -2.53824c-4.61349,3.09298 -6.74306,1.75125 -7.46064,1.00406 -0.0369638,0.340312 -0.012447,0.669119 0.0779822,0.96879 0.105894,0.350967 0.3058,0.668648 0.607262,0.922397 0.33456,0.281566 0.806508,0.499954 1.43037,0.623198 0.621029,0.122678 1.41905,0.110797 2.43753,-0.0897691 0.84036,-0.165583 1.80717,-0.45356 2.91825,-0.890431z"/>
   <path id="_154089472" class="fil6" d="M98.9502 108.076c-1.22461,-0.12579 -4.44451,-0.474683 -6.8679,-0.541632 -0.188308,-0.495616 -0.422632,-0.962944 -0.697974,-1.38727 0.563697,0.0558228 1.13258,0.118623 1.70693,0.190477 1.63451,0.204432 3.28119,0.514852 4.95899,0.831119 0.282792,0.0532768 0.56662,0.106837 0.849035,0.159642 0.933335,0.174258 1.09458,0.854598 0.0509195,0.747667z"/>
   <path id="_154089664" class="fil6" d="M101.148 105.227c-0.338897,0.218388 -0.884961,0.534843 -1.71316,0.669497 -0.374258,-0.0694013 -0.741633,-0.138614 -1.1075,-0.207544 -1.72494,-0.325224 -3.41792,-0.64432 -5.05329,-0.848846 -1.17473,-0.146912 -2.33673,-0.256955 -3.4828,-0.346347 -0.297219,-0.199812 -0.614428,-0.366243 -0.950214,-0.494107 -1.02065,-0.388685 -2.1802,-0.41754 -3.42811,0.055257 -0.1124,0.0426215 -0.22546,0.0892034 -0.338803,0.140029 -0.524093,-0.0303631 -1.05328,-0.0620463 -1.61047,-0.0981614 -7.19002,-0.466385 -13.3384,-0.377653 -18.3527,-0.0482792 -1.2414,-0.466007 -2.39501,-0.435739 -3.41094,-0.048845 -0.283735,0.108062 -0.554362,0.243753 -0.810751,0.403772 -5.03216,0.518907 -9.01765,1.20217 -10.76,1.62056 0.0657238,-1.01443 1.85394,-1.63555 3.84734,-2.1273 2.25932,-0.55738 4.78266,-0.922208 5.36163,-1.01603 2.99906,-0.486187 6.7986,-0.917305 11.4325,-1.10948 4.91646,-0.203866 10.4433,-0.220557 16.106,0.252429 4.73155,0.395286 9.53929,1.13286 14.1307,2.38982 1.01584,0.278077 0.861105,0.349458 0.140594,0.81358z"/>
   <path id="_154089832" class="fil10" d="M101.148 105.227c-0.109194,0.0703443 -0.239793,0.150872 -0.394437,0.232155 -12.0523,-2.86167 -22.0651,-3.34843 -29.7648,-2.99887 -10.4396,0.474022 -16.9254,2.57728 -18.2532,3.0448 -1.10976,0.193117 -1.99585,0.372278 -2.60632,0.518907 0.0657238,-1.01443 1.85394,-1.63555 3.84734,-2.1273 2.25932,-0.55738 4.78266,-0.922208 5.36163,-1.01603 2.99906,-0.486187 6.7986,-0.917305 11.4325,-1.10948 4.91646,-0.203866 10.4433,-0.220557 16.106,0.252429 4.73155,0.395286 9.53929,1.13286 14.1307,2.38982 1.01584,0.278077 0.861105,0.349458 0.140594,0.81358z"/>
   <path id="_154089112" class="fil7" d="M92.564 109.611c0.958417,-0.0154644 5.64772,-0.0496936 8.1324,0.705423 -0.0535597,0.0380953 -0.107874,0.0756248 -0.164168,0.11174 -1.24064,0.79689 -2.74767,0.787083 -4.29006,0.777088 -0.201698,-0.00132013 -0.404244,-0.00264027 -0.610091,-0.00235738l-3.04564 0.00424329c0.0361151,-0.534183 0.0303631,-1.06837 -0.0224423,-1.59614z"/>
   <path id="_154089544" class="fil11" d="M52.8356 96.8667c-0.938333,-0.224517 -3.63292,-0.598021 -6.78304,1.40764l0.0242339 5.75909c0.0060349,1.46252 0.133428,2.95041 0.625272,4.19774 0.444319,1.12683 1.21471,2.07289 2.52796,2.62537 0.989252,0.416031 1.98312,0.412165 3.09666,0.407827l0 9.42953e-005 0.00462047 -9.42953e-005 0.294484 -0.000942953 5.33202 -0.00754362c-0.0375295,-0.519661 -0.0357379,-1.03951 0.0103725,-1.55361 -1.2315,0.174823 -2.29241,0.278265 -3.20595,0.327865 -1.23857,0.0671383 -2.1935,0.0292315 -2.92891,-0.0662896 -1.07487,-0.139746 -1.93164,-0.545121 -2.54032,-1.16351 -0.652712,-0.663273 -0.993872,-1.53315 -0.992364,-2.5522 0.00188591,-1.36992 0.456861,-2.28864 1.23197,-2.96832 0.684112,-0.599907 1.56483,-0.935032 2.57973,-1.22744 0.225177,-0.0648752 0.468459,-0.132673 0.729563,-0.202923l-0.00631779 -4.98275zm-6.91958 -38.7623c0.857804,-0.705989 3.99633,-3.02688 6.86856,-1.81622l-0.00660067 -5.21632c-0.779351,0.222254 -1.5306,0.484772 -2.23225,0.805659 -1.33154,0.609148 -2.50797,1.4364 -3.39133,2.61575 -0.862896,1.15201 -1.15031,2.33994 -1.23838,3.61113zm-0.018199 3.49468c0.742293,-0.662802 3.47026,-2.81311 6.89072,-2.06365l-0.00235738 -1.90326c-1.03348,-0.215088 -3.90675,-0.513155 -6.90562,1.85177 0.000942953,0.230929 0.00386611,0.464876 0.00688356,0.702123 0.00320604,0.255917 0.00660067,0.516078 0.00773221,0.795381l0.00264027 0.617634zm6.89252 -0.649695c-0.948234,-0.209336 -3.60387,-0.458275 -6.88639,2.11778l0.0317775 7.53259c1.59633,-0.785574 4.00519,-1.92853 5.61877,-2.49788 0.264687,-1.02329 0.687696,-1.98303 1.2413,-2.8514l-0.00546913 -4.30109zm-6.75692 32.7952c0.886942,-0.611222 3.76945,-2.32975 6.79671,-1.24743l-0.020745 -16.421c0,-0.0291372 0.00113154,-0.0580859 0.00320604,-0.0867517 -0.973882,-1.5174 -1.54842,-3.31561 -1.57426,-5.24593 -1.84781,0.761812 -4.21321,1.93353 -5.29148,2.47751l0.0865631 20.5236zm0.0132956 3.14409c0.902595,-0.619237 3.7737,-2.31684 6.78738,-1.23697l-0.00245168 -1.93918c-0.94333,-0.224989 -3.64112,-0.595192 -6.79237,1.41707l0.00744933 1.75908z"/>
   <path id="_154089736" class="fil7" d="M51.5015 95.3416l-0.00150872 -1.80415c0.584725,0.0231023 1.0414,0.105988 1.33173,0.175201l0.00245168 1.93918c-0.449411,-0.161056 -0.895617,-0.259972 -1.33268,-0.310232zm-0.00264027 -3.15342l-0.0126356 -15.5004c-0.00282886,-3.52184 -2.13023,-4.65649 -5.53306,-1.99491l-0.00622349 -1.47176c1.07827,-0.54399 3.44366,-1.7157 5.29148,-2.47751 0.0258369,1.93032 0.600378,3.72853 1.57426,5.24593 -0.0020745,0.0286658 -0.00320604,0.0576144 -0.00320604,0.0867517l0.020745 16.421c-0.449034,-0.160491 -0.894768,-0.259029 -1.33136,-0.3091z"/>
   <path id="_154088992" class="fil7" d="M52.8356 96.8667c-0.292598,-0.0700614 -0.756154,-0.15455 -1.35087,-0.176804l0.00584631 3.91674c0,0 -5.51231,0.997361 -5.13551,6.46159 0.0879775,0.40415 0.201509,0.794061 0.347007,1.16294 0.444319,1.12683 1.21471,2.07289 2.52796,2.62537 0.989252,0.416031 1.98312,0.412165 3.09666,0.407827l0 9.42953e-005 0.00462047 -9.42953e-005 0.294484 -0.000942953 5.33202 -0.00754362c-0.0375295,-0.519661 -0.0357379,-1.03951 0.0103725,-1.55361 -1.2315,0.174823 -2.29241,0.278265 -3.20595,0.327865 -1.23857,0.0671383 -2.1935,0.0292315 -2.92891,-0.0662896 -1.07487,-0.139746 -1.93164,-0.545121 -2.54032,-1.16351 -0.652712,-0.663273 -0.993872,-1.53315 -0.992364,-2.5522 0.00188591,-1.36992 0.456861,-2.28864 1.23197,-2.96832 0.684112,-0.599907 1.56483,-0.935032 2.57973,-1.22744 0.225177,-0.0648752 0.468459,-0.132673 0.729563,-0.202923l-0.00631779 -4.98275z"/>
   <path id="_154088848" class="fil8" d="M80.341 72.1527c-0.370015,-0.177464 -0.99623,-0.495993 -1.60047,-0.887319 -1.2496,-0.809148 -2.21217,-1.50656 -3.41358,-1.40707 -0.629327,0.052051 -1.32447,0.254503 -2.16068,0.921265l-0.614051 0.485621 -1.51382 1.1223c-0.36794,2.04196 -1.3571,3.86828 -2.76483,5.27592 -1.80594,1.80604 -4.30109,2.92344 -7.0564,2.92344 -2.27733,0 -4.37681,-0.763415 -6.05649,-2.048l0.0286658 22.7393c1.08751,-0.239604 2.3471,-0.485432 3.78049,-0.717776 3.07497,-0.498539 6.96739,-0.940407 11.7087,-1.13701 5.02368,-0.208298 10.6557,-0.226686 16.3914,0.252429 5.26545,0.439793 10.6415,1.29873 15.7576,2.81236l0.0456389 -30.0842c-0.877135,-0.439699 -1.90825,-0.958323 -2.70137,-1.35757 -0.111929,2.58058 -1.20425,4.9076 -2.91372,6.61698 -1.80594,1.80604 -4.30109,2.92344 -7.0564,2.92344 -2.75531,0 -5.25046,-1.1174 -7.0564,-2.92344 -1.46139,-1.46139 -2.47186,-3.37407 -2.80425,-5.51071z"/>
   <path id="_154088488" class="fil9" d="M80.341 72.1527c-0.370015,-0.177464 -0.99623,-0.495993 -1.60047,-0.887319 -1.2496,-0.809148 -2.21217,-1.50656 -3.41358,-1.40707 -0.629327,0.052051 -1.32447,0.254503 -2.16068,0.921265l-0.614051 0.485621 -1.51382 1.1223c-0.36794,2.04196 -1.3571,3.86828 -2.76483,5.27592 -1.80594,1.80604 -4.30109,2.92344 -7.0564,2.92344 -2.27733,0 -4.37681,-0.763415 -6.05649,-2.048l0.00292315 2.34692c1.82546,1.18765 9.30412,5.18407 14.9488,-4.70354 0.902029,-1.58001 1.78237,-2.91769 3.15654,-3.64046 0.317115,-0.166714 0.660633,-0.300896 1.03668,-0.397549 1.78011,-0.457992 4.20133,-0.266667 5.39181,1.2778 0.64234,0.833288 1.05969,1.93777 1.69043,3.04178 0.90184,1.57831 2.38228,3.56917 4.59416,4.87884 5.4812,3.24564 10.3072,0.723905 13.4803,-4.25046 0.894014,-1.40151 1.70825,-3.13145 2.28732,-5.25206l-1.57784 -0.793684c-0.111929,2.58058 -1.20425,4.9076 -2.91372,6.61698 -1.80594,1.80604 -4.30109,2.92344 -7.0564,2.92344 -2.75531,0 -5.25046,-1.1174 -7.0564,-2.92344 -1.46139,-1.46139 -2.47186,-3.37407 -2.80425,-5.51071z"/>
   <path id="_154088656" class="fil9" d="M55.1875 99.7881l0.00188591 1.49005c1.08751,-0.239604 2.3471,-0.485432 3.78049,-0.717776 3.07497,-0.498539 6.96739,-0.940407 11.7087,-1.13701 5.02368,-0.208298 10.6557,-0.226686 16.3914,0.252429 5.26545,0.439793 10.6415,1.29873 15.7576,2.81236l0.0456389 -30.0842c-0.476286,-0.238756 -0.997833,-0.500708 -1.50222,-0.754268l-0.0194248 28.9694c0,0 -23.4784,-5.49393 -46.1641,-0.831024z"/>
   <path id="_154088584" class="fil8" d="M71.0929 69.1623c1.0628,-0.915419 4.73485,-3.48827 9.23387,-0.00612919 0.316927,-2.17483 1.33541,-4.12259 2.81849,-5.60557 1.80594,-1.80604 4.30109,-2.92344 7.0564,-2.92344 2.75531,0 5.25046,1.1174 7.0564,2.92344 1.28025,1.28015 2.21424,2.90675 2.6497,4.72674 0.0177275,0.00792081 0.0352664,0.0163131 0.0527111,0.0251768 0.00782651,0.0039604 1.534,0.776522 2.91674,1.47412l0.0198963 -13.1121c0.0020745,-1.3851 -0.020745,-2.54541 -0.377087,-3.40349 -0.314663,-0.757757 -0.966244,-1.37143 -2.25809,-1.86337 -0.817729,-0.311457 -1.79161,-0.600001 -2.87233,-0.865442 -1.19708,-0.294013 -2.5422,-0.56398 -3.96521,-0.808771 -6.50411,-1.11891 -12.8304,-1.56266 -19.144,-1.40651 -6.31477,0.156342 -12.6446,0.915042 -19.1514,2.20057l-0.00358322 0.000754362 0.0152758 12.1722c1.68289,-1.29383 3.79011,-2.06328 6.07648,-2.06328 2.75531,0 5.25046,1.1174 7.0564,2.92344 1.4844,1.4844 2.50345,3.43442 2.81934,5.6117z"/>
   <path id="_154088632" class="fil9" d="M101.373 69.0168l1.50448 0.759832 0.0198963 -13.1121c0.0020745,-1.3851 -0.020745,-2.54541 -0.377087,-3.40349 -0.205941,-0.495993 -0.556248,-0.930317 -1.13588,-1.30901l-0.0114097 17.0648z"/>
   <path id="_154088536" class="fil6" d="M102.518 53.2556c-0.315512,-0.755305 -0.967093,-1.36719 -2.25583,-1.85799 -0.817729,-0.311457 -1.79161,-0.600001 -2.87233,-0.865442 -1.19708,-0.294013 -2.5422,-0.56398 -3.96521,-0.808771 -6.50411,-1.11891 -12.8304,-1.56266 -19.144,-1.40651 -6.31477,0.156342 -12.6446,0.915042 -19.1514,2.20057l-0.00358322 0.000754362 0.00122584 0.978974c2.48817,-0.428761 31.0548,-5.13768 47.3911,1.75842z"/>
   <g>
    <path id="_154088368" class="fil8" d="M83.5475 108.663c0.522019,-0.845357 1.1422,-1.43423 1.74154,-1.84394 0.340689,-0.232815 0.664028,-0.403772 0.969073,-0.519379 0.654221,-0.247902 1.23612,-0.242622 1.72815,-0.055257 0.517493,0.197077 0.969733,0.598209 1.32947,1.12457 0.208487,0.30514 0.384725,0.648563 0.524376,1.01707 0.456484,1.20509 0.460444,2.58445 0.16398,3.93758 -0.348987,1.59293 -1.10863,3.12655 -2.04357,4.30618 -0.63159,0.796984 -1.26657,1.37813 -1.87261,1.73145 -0.511646,0.29835 -0.983971,0.425083 -1.38916,0.369638 -0.608582,-0.083357 -1.17643,-0.559548 -1.61566,-1.30542 -0.513909,-0.872609 -0.83093,-2.07054 -0.850638,-3.45649 0.0288544,-1.81622 0.345875,-3.73551 1.31504,-5.306z"/>
    <path id="_154088416" class="fil9" d="M83.5475 108.663c0.522019,-0.845357 1.1422,-1.43423 1.74154,-1.84394 0.232438,-0.158888 0.456861,-0.288921 0.672891,-0.392268 -0.764735,1.06469 -2.27685,3.53692 -2.36577,6.544 -0.115795,3.92372 2.36276,4.64998 5.38153,2.1026 -0.301556,0.562471 -0.645451,1.08741 -1.01716,1.55644 -0.63159,0.796984 -1.26657,1.37813 -1.87261,1.73145 -0.511646,0.29835 -0.983971,0.425083 -1.38916,0.369638 -0.608582,-0.083357 -1.17643,-0.559548 -1.61566,-1.30542 -0.513909,-0.872609 -0.83093,-2.07054 -0.850638,-3.45649 0.0288544,-1.81622 0.345875,-3.73551 1.31504,-5.306z"/>
    <path id="_154088344" class="fil6" d="M85.4691 106.701c0.275059,-0.173598 0.538238,-0.306083 0.789063,-0.401132 0.654221,-0.247902 1.23612,-0.242622 1.72815,-0.055257 0.517493,0.197077 0.969733,0.598209 1.32947,1.12457 0.208487,0.30514 0.384725,0.648563 0.524376,1.01707 0.456484,1.20509 0.460444,2.58445 0.16398,3.93758 -0.341538,1.55908 -1.07666,3.06139 -1.98435,4.23056 0.690807,-1.50033 1.16653,-3.22433 1.34154,-4.82962 0.334277,-3.06875 -0.623009,-5.33466 -3.89223,-5.02377z"/>
   </g>
   <path id="_154096048" class="fil12" d="M59.2973 54.6815c0,0 20.1141,-3.53457 34.6064,0.188213"/>
   <path id="_154096072" class="fil6" d="M59.4399 55.5168c-0.461293,0.0787366 -0.8992,-0.231495 -0.977937,-0.692788 -0.0787366,-0.461293 0.231495,-0.8992 0.692788,-0.977937 0.0585574,-0.0099953 20.2841,-3.56465 34.9578,0.204715 0.45224,0.115323 0.725319,0.575484 0.609996,1.02772 -0.115323,0.45224 -0.575484,0.725319 -1.02772,0.609996 -14.3104,-3.67601 -34.1973,-0.181518 -34.2549,-0.171712z"/>
   <path id="_154096264" class="fil12" d="M59.2973 58.8588c0,0 20.1141,-3.53457 34.6064,0.188213"/>
   <path id="_154096288" class="fil6" d="M59.4399 59.6941c-0.461293,0.0787366 -0.8992,-0.231495 -0.977937,-0.692788 -0.0787366,-0.461293 0.231495,-0.8992 0.692788,-0.977937 0.0585574,-0.0099953 20.2841,-3.56465 34.9578,0.204715 0.45224,0.115323 0.725319,0.575484 0.609996,1.02772 -0.115323,0.45224 -0.575484,0.725319 -1.02772,0.609996 -14.3104,-3.67601 -34.1973,-0.181518 -34.2549,-0.171712z"/>
   <path id="_154096000" class="fil13" d="M59.3845 82.4303c1.35823,0 2.45969,1.10146 2.45969,2.45969 0,1.35823 -1.10146,2.45969 -2.45969,2.45969 -1.35823,0 -2.45969,-1.10146 -2.45969,-2.45969 0,-1.35823 1.10146,-2.45969 2.45969,-2.45969z"/>
   <path id="_154096408" class="fil13" d="M93.1894 82.4303c1.35823,0 2.45969,1.10146 2.45969,2.45969 0,1.35823 -1.10146,2.45969 -2.45969,2.45969 -1.35823,0 -2.45969,-1.10146 -2.45969,-2.45969 0,-1.35823 1.10146,-2.45969 2.45969,-2.45969z"/>
   <path id="_154095904" class="fil12" d="M59.2973 95.5419c0,0 20.1141,-3.53457 34.6064,0.188213"/>
   <path id="_154095736" class="fil6" d="M59.4399 96.3772c-0.461293,0.0787366 -0.8992,-0.231495 -0.977937,-0.692788 -0.0787366,-0.461293 0.231495,-0.8992 0.692788,-0.977937 0.0585574,-0.0099953 20.2841,-3.56465 34.9578,0.204715 0.45224,0.115323 0.725319,0.575484 0.609996,1.02772 -0.115323,0.45224 -0.575484,0.725319 -1.02772,0.609996 -14.3104,-3.67601 -34.1973,-0.181518 -34.2549,-0.171712z"/>
   <path id="_154095664" class="fil6" d="M59.1357 92.156c-0.459501,0.0823198 -0.898917,-0.223386 -0.981237,-0.682887 -0.0823198,-0.459501 0.223386,-0.898917 0.682887,-0.981237 0.0232909,-0.00414899 8.07168,-1.46243 12.8897,-1.4793 0.466856,0 0.845357,0.378501 0.845357,0.845357 0,0.466856 -0.378501,0.845357 -0.845357,0.845357 -4.66234,0.0164074 -12.5685,1.44866 -12.5913,1.45271z"/>
   <path id="_154095496" class="fil6" d="M80.619 90.6923c-0.466856,-0.0127299 -0.834891,-0.401698 -0.822161,-0.868554 0.0127299,-0.466856 0.401698,-0.834891 0.868554,-0.822161 0.0253654,0.000754362 8.82915,0.252617 13.6114,1.49251 0.45224,0.117115 0.723811,0.578785 0.606696,1.03102 -0.117115,0.45224 -0.578785,0.723811 -1.03102,0.606696 -4.5985,-1.19227 -13.2087,-1.43885 -13.2335,-1.43951z"/>
   <path id="_154095424" class="fil3" d="M75.7937 81.3112c0.671854,-0.000188591 1.73937,-0.0946725 2.91052,-0.56002 1.32749,-0.527205 3.18162,-2.28166 3.33456,0.116832 0.0495993,0.777842 -0.048845,1.91834 -0.692882,3.24857 -1.0662,2.20189 -2.93513,4.01283 -5.5522,4.01971 -2.61707,-0.00688356 -4.486,-1.81782 -5.5522,-4.01971 -0.644037,-1.33022 -0.742481,-2.47073 -0.692882,-3.24857 0.152947,-2.3985 2.00708,-0.644037 3.33456,-0.116832 1.17115,0.465347 2.23866,0.559831 2.91052,0.56002z"/>
   <path id="_154095616" class="fil14" d="M75.7937 83.9734c0.985952,0 1.86412,0.390477 2.42924,0.998021 -0.565112,0.607545 -1.44328,0.998021 -2.42924,0.998021 -0.985952,0 -1.86412,-0.390477 -2.42924,-0.998021 0.565112,-0.607545 1.44328,-0.998021 2.42924,-0.998021z"/>
   <path id="_154095352" class="fil15" d="M39.5192 124.009c11.5771,0 23.0876,-1.08062 34.6647,-1.08062 12.3239,0 24.7144,1.08062 37.0383,1.08062 0.398586,0 0.724659,0.326073 0.724659,0.724659l0 0c0,0.398586 -0.326167,0.724659 -0.724659,0.724659 -23.9009,0 -47.8022,0 -71.7031,0 -0.398492,0 -0.724659,-0.326073 -0.724659,-0.724659l0 0c0,-0.398586 0.326073,-0.724659 0.724659,-0.724659z"/>
   <path id="_154095520" class="fil16" d="M105.716 125.458c-6.92335,1.58096 -17.9401,2.60368 -30.3452,2.60368 -12.4051,0 -23.4218,-1.02273 -30.3452,-2.60368l60.6903 0z"/>
   <path id="_154095880" class="fil3" d="M36.8808 66.7056c-0.0400755,-0.00282886 -0.0798681,-0.00462047 -0.119472,-0.00556342l-0.0105611 -5.83678c0.0184819,-0.448186 -0.258463,-0.873269 -0.70514,-1.02273l-6.68629 -2.23763 -0.000188591 0.000471477c-0.10297,-0.0345121 -0.213296,-0.0531826 -0.327959,-0.0531826 -0.570581,0 -1.03319,0.462613 -1.03319,1.03319l-0.000377181 8.05263c-0.0931638,-0.00358322 -0.188025,-0.0020745 -0.284112,0.00480906 -1.3124,0.0941067 -2.37671,1.14654 -2.37671,2.35031 0,1.20377 1.06431,2.10363 2.37671,2.00962 0.98416,-0.0705329 1.73475,-0.680246 2.09552,-1.48845 0.30844,-0.69109 0.254974,-1.49449 0.254974,-2.22763l0.000282886 -7.26526 4.62132 1.54663 0.0114097 6.26847c0.00132013,0.765489 -0.0543141,1.42565 0.515795,2.07667 0.40283,0.459784 1.00076,0.775956 1.66799,0.823669 1.21273,0.086846 2.19642,-0.744839 2.19642,-1.85724 0,-1.1125 -0.983594,-2.08506 -2.19642,-2.172z"/>
   <path id="_154095952" class="fil5" d="M120.813 55.8389c0.570581,0.0424329 0.998682,0.539558 0.956249,1.11014 -0.0424329,0.570581 -0.539558,0.998682 -1.11014,0.956249 -0.0100896,-0.000754362 -2.74475,-0.166808 -5.22669,-2.56955l-0.00264027 6.25159c-0.000282886,0.751816 0.114852,1.65102 -0.214239,2.3422 -0.397643,0.834985 -1.32881,1.4595 -2.41368,1.52334 -1.44649,0.085243 -2.61962,-0.85837 -2.61962,-2.10712 0,-1.24866 1.17303,-2.33032 2.61962,-2.41556 0.192834,-0.0114097 0.380859,-0.00424329 0.561811,0.0192362l0.00367752 -8.62142c-0.0142386,-0.37671 0.178784,-0.747667 0.530788,-0.943424 0.498916,-0.277417 1.12853,-0.0977842 1.40594,0.401132 2.14654,3.85196 5.4993,4.05253 5.50892,4.05319z"/>
   <path id="_154095400" class="fil17" d="M95.5913 65.2174c-1.37935,-1.37945 -3.28506,-2.23282 -5.38964,-2.23282 -2.10458,0 -4.01028,0.853372 -5.38964,2.23282 -1.37945,1.37935 -2.23282,3.28506 -2.23282,5.38964 0,2.10458 0.853372,4.01028 2.23282,5.38964 1.37935,1.37945 3.28506,2.23282 5.38964,2.23282 2.10458,0 4.01028,-0.853372 5.38964,-2.23282 1.37945,-1.37935 2.23282,-3.28506 2.23282,-5.38964 0,-2.10458 -0.853372,-4.01028 -2.23282,-5.38964z"/>
   <path id="_154094704" class="fil18" d="M92.1397 63.2334c-0.61886,-0.162282 -1.26837,-0.248845 -1.93805,-0.248845 -2.10458,0 -4.01028,0.853372 -5.38964,2.23282 -1.37945,1.37935 -2.23282,3.28506 -2.23282,5.38964 0,0.63225 0.0771336,1.2464 0.222254,1.83386 1.12834,2.27846 3.47695,3.84565 6.19143,3.84565 3.81302,0 6.90515,-3.09213 6.90515,-6.90534 0,-2.67959 -1.52711,-5.00312 -3.75833,-6.14777z"/>
   <path id="_154094776" class="fil6" d="M86.5723 63.9026c-0.649506,0.352382 -1.24206,0.796418 -1.7603,1.31476 -0.633759,0.633759 -1.15644,1.3785 -1.53635,2.20274 0.317681,0.275814 0.732486,0.50316 1.21235,0.661482 -0.364923,0.284678 -0.60349,0.756343 -0.60349,1.28996 0,0.86912 0.632816,1.57398 1.4133,1.57398 0.780482,0 1.4133,-0.704857 1.4133,-1.57398 0,-0.403112 -0.136257,-0.770864 -0.360019,-1.04932 1.80057,-0.0865631 3.21981,-1.04639 3.21981,-2.21745 0,-1.12259 -1.30439,-2.05102 -2.99859,-2.20217z"/>
   <path id="_154095040" class="fil17" d="M66.6068 65.2174c-1.37935,-1.37945 -3.28506,-2.23282 -5.38964,-2.23282 -2.10458,0 -4.01028,0.853372 -5.38964,2.23282 -1.37945,1.37935 -2.23282,3.28506 -2.23282,5.38964 0,2.10458 0.853372,4.01028 2.23282,5.38964 1.37935,1.37945 3.28506,2.23282 5.38964,2.23282 2.10458,0 4.01028,-0.853372 5.38964,-2.23282 1.37945,-1.37935 2.23282,-3.28506 2.23282,-5.38964 0,-2.10458 -0.853372,-4.01028 -2.23282,-5.38964z"/>
   <path id="_154094608" class="fil18" d="M63.4587 63.3197c-0.708723,-0.217822 -1.46148,-0.335126 -2.24149,-0.335126 -2.10458,0 -4.01028,0.853372 -5.38964,2.23282 -1.37945,1.37935 -2.23282,3.28506 -2.23282,5.38964 0,0.748988 0.108157,1.4727 0.309571,2.15653 1.21132,1.99246 3.40283,3.32353 5.90458,3.32353 3.81311,0 6.90524,-3.09213 6.90524,-6.90524 0,-2.47308 -1.3009,-4.64253 -3.25545,-5.86215z"/>
   <path id="_154094992" class="fil6" d="M57.597 63.8978c-0.653089,0.35323 -1.24875,0.79887 -1.76945,1.31957 -0.623009,0.623009 -1.13862,1.35342 -1.51693,2.16097 0.323244,0.294673 0.7554,0.537012 1.25941,0.703254 -0.364923,0.284678 -0.60349,0.756343 -0.60349,1.28996 0,0.86912 0.632816,1.57398 1.4133,1.57398 0.780482,0 1.4133,-0.704857 1.4133,-1.57398 0,-0.403112 -0.136257,-0.770864 -0.360019,-1.04932 1.80057,-0.0865631 3.21981,-1.04639 3.21981,-2.21745 0,-1.13532 -1.3339,-2.07195 -3.05592,-2.20698z"/>
   <path id="_154094848" class="fil7" d="M52.7904 60.9495c-0.288921,-0.0637436 -0.736635,-0.13107 -1.31212,-0.121169l-0.00895805 7.30402 0.085243 -0.0303631c0.264687,-1.02329 0.687696,-1.98303 1.2413,-2.8514l-0.00546913 -4.30109z"/>
   <path id="_154094512" class="fil3" d="M61.5118 68.2705c1.35823,0 2.45969,1.10146 2.45969,2.45969 0,1.35823 -1.10146,2.45969 -2.45969,2.45969 -1.35823,0 -2.45969,-1.10146 -2.45969,-2.45969 0,-1.35823 1.10146,-2.45969 2.45969,-2.45969z"/>
   <path id="_154095160" class="fil3" d="M90.2969 68.2705c1.35823,0 2.45969,1.10146 2.45969,2.45969 0,1.35823 -1.10146,2.45969 -2.45969,2.45969 -1.35823,0 -2.45969,-1.10146 -2.45969,-2.45969 0,-1.35823 1.10146,-2.45969 2.45969,-2.45969z"/>
   <path id="_154094896" class="fil4" d="M115.46 75.5912c0.155493,-0.00556342 0.305611,0.0102782 0.447337,0.0444131l0.0309289 -2.68562c0.00367752,-0.329091 0.0549742,-0.541632 0.180387,-0.663839 0.452052,-0.440265 1.05224,0.301556 1.42801,0.566432 0.850544,0.598964 1.76587,1.14965 1.56889,2.53051 -0.0439416,0.308817 -0.329939,0.523528 -0.638756,0.479586 -0.308817,-0.0439416 -0.523528,-0.329939 -0.479586,-0.638756 0.0903349,-0.633287 -0.414899,-1.05281 -0.94135,-1.42942l-0.0280057 2.42867c-0.00452617,0.407827 0.0438473,0.881661 -0.111268,1.26337 -0.223197,0.54927 -0.791326,0.954268 -1.45658,0.977748 -0.859973,0.0304574 -1.55766,-0.588308 -1.55766,-1.38152 0,-0.793212 0.697597,-1.4612 1.55766,-1.49156z"/>
   <path id="_154094392" class="fil7" d="M51.4842 55.9651c0.433758,0.0400755 0.870063,0.141726 1.30043,0.32315l-0.00660067 -5.21632c-0.439699,0.125413 -0.87044,0.263555 -1.28836,0.417822l-0.00546913 4.47535z"/>
   <path id="_154094440" class="fil7" d="M51.48 59.3808c0.422349,0.00839228 0.859407,0.0562943 1.30854,0.154739l-0.00235738 -1.90326c-0.296559,-0.0617634 -0.744839,-0.130222 -1.30382,-0.140689l-0.00235738 1.88921z"/>
   <path id="_154093960" class="fil6" style="mask:url(#id2)" d="M47.6408 97.4337c-0.511269,0.217728 -1.04291,0.493447 -1.58822,0.840643l0.0242339 5.75909c0.00424329,1.02999 0.068647,2.07252 0.278265,3.0348 -0.133994,-1.94343 0.477229,-3.32136 1.32013,-4.29081l-0.0344178 -5.34371zm5.13834 -45.499c-1.41726,0.397832 -4.98652,1.73117 -5.38671,5.14362 -0.675343,0.39472 -1.19698,0.796135 -1.47638,1.02612 0.0880718,-1.27119 0.375484,-2.45913 1.23838,-3.61113 0.883358,-1.17935 2.05979,-2.0066 3.39133,-2.61575 0.701651,-0.320887 1.4529,-0.583405 2.23225,-0.805659l0.00113154 0.862802zm-5.38917 6.56116l0.0129185 2.01858c-0.717304,0.418011 -1.23885,0.84696 -1.50505,1.08468l-0.00264027 -0.617634c-0.00113154,-0.279303 -0.00452617,-0.539463 -0.00773221,-0.795381 -0.00301745,-0.237247 -0.0059406,-0.471194 -0.00688356,-0.702123 0.509572,-0.401792 1.01547,-0.72664 1.50938,-0.98812zm0.0228195 3.54843l0.0503537 7.81746c-0.550402,0.260727 -1.07195,0.513909 -1.5274,0.738049l-0.0317775 -7.53259c0.520133,-0.408204 1.02442,-0.745216 1.50882,-1.02292zm0.0671383 10.4169l0.131448 20.4057c-0.716361,0.316738 -1.26855,0.664593 -1.57794,0.877795l-0.0865631 -20.5236c0.378407,-0.190948 0.915607,-0.459218 1.53305,-0.759926zm0.140594 21.8279l0.0111268 1.72212c-0.715984,0.314663 -1.27025,0.661576 -1.58492,0.877512l-0.00744933 -1.75908c0.542764,-0.34663 1.07195,-0.622443 1.58124,-0.840548z"/>
   <path id="_154094248" class="fil9" d="M105.201 85.8898l-0.00377181 2.46139c1.53635,0.607167 2.79652,0.942199 3.82943,1.0859 1.19114,0.165771 2.04234,0.0751534 2.65008,-0.136634 0.214616,-0.0747762 0.408299,-0.173503 0.580199,-0.291372 0.439982,-0.301462 0.728148,-0.738144 0.863273,-1.22612 0.0417728,-0.150684 0.0694013,-0.306365 0.0829799,-0.464782 -2.25149,1.82292 -6.62057,-0.583782 -8.00218,-1.42839z"/>
   <g>
    <path id="_154093864" class="fil8" d="M66.9934 108.663c-0.522019,-0.845357 -1.1422,-1.43423 -1.74154,-1.84394 -0.340689,-0.232815 -0.664028,-0.403772 -0.969073,-0.519379 -0.654221,-0.247902 -1.23612,-0.242622 -1.72815,-0.055257 -0.517493,0.197077 -0.969733,0.598209 -1.32947,1.12457 -0.208487,0.30514 -0.384725,0.648563 -0.524376,1.01707 -0.456484,1.20509 -0.460444,2.58445 -0.16398,3.93758 0.348987,1.59293 1.10863,3.12655 2.04357,4.30618 0.63159,0.796984 1.26657,1.37813 1.87261,1.73145 0.511646,0.29835 0.983971,0.425083 1.38916,0.369638 0.608582,-0.083357 1.17643,-0.559548 1.61566,-1.30542 0.513909,-0.872609 0.83093,-2.07054 0.850638,-3.45649 -0.0288544,-1.81622 -0.345875,-3.73551 -1.31504,-5.306z"/>
    <path id="_154093768" class="fil9" d="M66.9934 108.663c-0.522019,-0.845357 -1.1422,-1.43423 -1.74154,-1.84394 -0.232438,-0.158888 -0.456861,-0.288921 -0.672891,-0.392268 0.764735,1.06469 2.27685,3.53692 2.36577,6.544 0.115795,3.92372 -2.36276,4.64998 -5.38153,2.1026 0.301556,0.562471 0.645451,1.08741 1.01716,1.55644 0.63159,0.796984 1.26657,1.37813 1.87261,1.73145 0.511646,0.29835 0.983971,0.425083 1.38916,0.369638 0.608582,-0.083357 1.17643,-0.559548 1.61566,-1.30542 0.513909,-0.872609 0.83093,-2.07054 0.850638,-3.45649 -0.0288544,-1.81622 -0.345875,-3.73551 -1.31504,-5.306z"/>
    <path id="_154093696" class="fil6" d="M65.0719 106.701c-0.275059,-0.173598 -0.538238,-0.306083 -0.789063,-0.401132 -0.654221,-0.247902 -1.23612,-0.242622 -1.72815,-0.055257 -0.517493,0.197077 -0.969733,0.598209 -1.32947,1.12457 -0.208487,0.30514 -0.384725,0.648563 -0.524376,1.01707 -0.456484,1.20509 -0.460444,2.58445 -0.16398,3.93758 0.341538,1.55908 1.07666,3.06139 1.98435,4.23056 -0.690807,-1.50033 -1.16653,-3.22433 -1.34154,-4.82962 -0.334277,-3.06875 0.623009,-5.33466 3.89223,-5.02377z"/>
   </g>
   <path id="_154093192" class="fil6" d="M43.6347 81.7676l-0.00575201 -1.36738c-1.79038,0.855353 -4.85017,2.50637 -6.51411,4.48327 -0.460633,0.54729 -0.762283,1.16587 -0.882698,1.77567 -0.0857144,0.433758 -0.0761906,0.856484 0.0374352,1.2331 0.0452617,0.14993 0.107591,0.29373 0.187742,0.429138 0.61688,-3.42801 5.71062,-5.90637 7.17738,-6.55381z"/>
   <path id="_154093072" class="fil6" d="M105.209 80.4157l-0.00169732 1.13371c1.58067,0.680341 6.95522,3.2051 7.84886,6.42981 0.0241396,-0.0643094 0.045356,-0.12975 0.0637436,-0.196229 0.143706,-0.518718 0.120415,-1.09628 -0.0700614,-1.6431 -0.085243,-0.244791 -0.206224,-0.485338 -0.362848,-0.71391 -1.66035,-2.42226 -5.83254,-4.32863 -7.47799,-5.01029z"/>
  </g>
 </g>
</svg>
