<?xml version="1.0" encoding="UTF-8"?>
<!DOCTYPE svg PUBLIC "-//W3C//DTD SVG 1.1//EN" "http://www.w3.org/Graphics/SVG/1.1/DTD/svg11.dtd">
<!-- Creator: CorelDRAW -->
<svg xmlns="http://www.w3.org/2000/svg" xml:space="preserve" width="300mm" height="297mm" style="shape-rendering:geometricPrecision; text-rendering:geometricPrecision; image-rendering:optimizeQuality; fill-rule:evenodd; clip-rule:evenodd"
viewBox="0 0 300 297"
 xmlns:xlink="http://www.w3.org/1999/xlink">
 <defs>
  <style type="text/css">
   <![CDATA[
    .fil5 {fill:#E77817}
    .fil0 {fill:white}
    .fil23 {fill:#B0DCF2}
    .fil22 {fill:#E56C3A}
    .fil3 {fill:#141516}
    .fil21 {fill:#D06F28}
    .fil4 {fill:#F6B800}
    .fil20 {fill:#AAA9A9;fill-rule:nonzero}
    .fil9 {fill:white;fill-rule:nonzero}
    .fil18 {fill:#109790;fill-rule:nonzero}
    .fil17 {fill:#1FAEAA;fill-rule:nonzero}
    .fil14 {fill:#975232;fill-rule:nonzero}
    .fil10 {fill:#A9D5C2;fill-rule:nonzero}
    .fil19 {fill:#B0DCF2;fill-rule:nonzero}
    .fil13 {fill:#DA8E5A;fill-rule:nonzero}
    .fil15 {fill:#EB8B35;fill-rule:nonzero}
    .fil12 {fill:#F7D160;fill-rule:nonzero}
    .fil16 {fill:#FDEA71;fill-rule:nonzero}
    .fil7 {fill:#141516;fill-rule:nonzero}
    .fil11 {fill:#E67024;fill-rule:nonzero}
    .fil6 {fill:#F6B800;fill-rule:nonzero}
    .fil8 {fill:url(#id2)}
    .fil2 {fill:url(#id3)}
    .fil1 {fill:url(#id4)}
   ]]>
  </style>
    <mask id="id0">
  <linearGradient id="id1" gradientUnits="userSpaceOnUse" x1="165.024" y1="169.016" x2="182.659" y2="157.4" spreadMethod="reflect">
   <stop offset="0" style="stop-opacity:1; stop-color:white"/>
   <stop offset="1" style="stop-opacity:0; stop-color:white"/>
  </linearGradient>
     <rect style="fill:url(#id1)" x="160.826" y="151.757" width="26.0315" height="22.9018"/>
    </mask>
  <linearGradient id="id2" gradientUnits="userSpaceOnUse" x1="151.541" y1="194.251" x2="151.541" y2="220.244">
   <stop offset="0" style="stop-color:#28AFAB"/>
   <stop offset="0.411765" style="stop-color:#2CAFAA"/>
   <stop offset="1" style="stop-color:#51B474"/>
  </linearGradient>
  <linearGradient id="id3" gradientUnits="userSpaceOnUse" x1="151.541" y1="47.1216" x2="151.541" y2="191.193">
   <stop offset="0" style="stop-color:#00ADDB"/>
   <stop offset="0.419608" style="stop-color:#5BBBD4"/>
   <stop offset="0.701961" style="stop-color:#81C8CE"/>
   <stop offset="0.921569" style="stop-color:#F7F7A7"/>
   <stop offset="1" style="stop-color:#FFFBA7"/>
  </linearGradient>
  <linearGradient id="id4" gradientUnits="userSpaceOnUse" x1="151.541" y1="249.878" x2="151.541" y2="225.768">
   <stop offset="0" style="stop-color:#EA842F"/>
   <stop offset="1" style="stop-color:#F8C849"/>
  </linearGradient>
 </defs>
 <g id="图层_x0020_1">
  <metadata id="CorelCorpID_0Corel-Layer"/>
  <g id="_649735408">
   <path id="_266110224" class="fil1" d="M214.811 225.768c-17.0532,15.0336 -39.1399,24.1105 -63.2701,24.1105 -24.1301,0 -46.2167,-9.0769 -63.2699,-24.1105l126.54 0z"/>
   <path id="_266110440" class="fil2" d="M151.541 47.1215c53.9801,0 97.7561,45.3981 97.7561,101.379 0,15.2522 -3.2518,29.7171 -9.0731,42.6928l-177.366 0c-5.8213,-12.9757 -9.0731,-27.4406 -9.0731,-42.6928 0,-55.9804 43.776,-101.379 97.7559,-101.379z"/>
   <path id="_266110104" class="fil3" d="M240.224 191.193c-0.4616,1.029 -0.94,2.0482 -1.4336,3.058l-174.499 0c-0.4936,-1.0098 -0.972,-2.029 -1.4336,-3.058l177.366 0z"/>
   <path id="_266110200" class="fil0" d="M220.592 220.244c-0.9073,0.939 -1.8317,1.8604 -2.7738,2.7621l-132.555 0c-0.9421,-0.9017 -1.8665,-1.8231 -2.7738,-2.7621l138.102 0z"/>
   <path id="_266110392" class="fil3" d="M217.818 223.006c-0.9839,0.9418 -1.9867,1.8623 -3.0074,2.7621l-126.54 0c-1.0207,-0.8998 -2.0235,-1.8203 -3.0074,-2.7621l132.555 0z"/>
   <path id="_266110344" class="fil3" d="M109.333 72.2478c10.8701,0 19.6853,8.8152 19.6853,19.6853 0,10.8701 -8.8152,19.6853 -19.6853,19.6853 -10.8701,0 -19.6853,-8.8152 -19.6853,-19.6853 0,-10.8701 8.8152,-19.6853 19.6853,-19.6853z"/>
   <path id="_266110176" class="fil4" d="M109.333 75.2274c9.2248,0 16.7057,7.4809 16.7057,16.7057 0,9.2248 -7.4809,16.7057 -16.7057,16.7057 -9.2248,0 -16.7057,-7.4809 -16.7057,-16.7057 0,-9.2248 7.4809,-16.7057 16.7057,-16.7057z"/>
   <path id="_266109288" class="fil0" d="M109.333 75.2274c6.2887,0 11.7664,3.4769 14.6164,8.6127 -3.3529,-2.8635 -8.1415,-5.4983 -13.2002,-5.4983 -8.8647,0 -16.0535,7.1888 -16.0535,16.0535 0,3.755 1.2902,7.2089 3.4509,9.9435 -3.3886,-3.0576 -5.5193,-7.4832 -5.5193,-12.4057 0,-9.2248 7.4809,-16.7057 16.7057,-16.7057z"/>
   <path id="_266109480" class="fil5" d="M124.564 85.0638c0.9467,2.0954 1.4738,4.4209 1.4738,6.8693 0,9.2248 -7.4809,16.7057 -16.7057,16.7057 -8.0047,0 -14.6951,-5.6334 -16.3251,-13.1508 2.6202,5.7995 8.4555,9.8364 15.2319,9.8364 9.2248,0 16.7057,-7.4809 16.7057,-16.7057 0,-1.2201 -0.1322,-2.4091 -0.3806,-3.5549z"/>
   <path id="_266109720" class="fil6" d="M128.883 77.1129c-0.5753,0.5236 -1.4663,0.4816 -1.9899,-0.0937 -0.5236,-0.5753 -0.4816,-1.4663 0.0937,-1.9899l8.7538 -7.9639c0.5753,-0.5236 1.4663,-0.4816 1.9899,0.0937 0.5236,0.5753 0.4816,1.4663 -0.0937,1.9899l-8.7538 7.9639z"/>
   <path id="_266109408" class="fil6" d="M134.464 90.0827c-0.7762,0.0517 -1.4476,-0.5357 -1.4993,-1.3119 -0.0517,-0.7762 0.5357,-1.4476 1.3119,-1.4993l9.157 -0.6301c0.7762,-0.0517 1.4476,0.5357 1.4993,1.3119 0.0517,0.7762 -0.5357,1.4476 -1.3119,1.4993l-9.157 0.6301z"/>
   <path id="_266109432" class="fil6" d="M117.332 67.8354c-0.2648,0.7306 -1.0719,1.1081 -1.8025,0.8433 -0.7306,-0.2648 -1.1081,-1.0719 -0.8433,-1.8025l5.6958 -15.7618c0.2648,-0.7306 1.0719,-1.1081 1.8025,-0.8433 0.7306,0.2648 1.1081,1.0719 0.8433,1.8025l-5.6958 15.7618z"/>
   <path id="_266109024" class="fil6" d="M102.795 67.1545c0.28,0.7245 -0.0803,1.539 -0.8048,1.819 -0.7245,0.28 -1.539,-0.0803 -1.819,-0.8048l-5.0072 -12.8567c-0.28,-0.7245 0.0803,-1.539 0.8048,-1.819 0.7245,-0.28 1.539,0.0803 1.819,0.8048l5.0072 12.8567z"/>
   <path id="_266109096" class="fil6" d="M90.9846 74.6188c0.6331,0.4505 0.7812,1.3292 0.3307,1.9623 -0.4505,0.6331 -1.3292,0.7812 -1.9623,0.3307l-9.4413 -6.7407c-0.6331,-0.4505 -0.7812,-1.3292 -0.3307,-1.9623 0.4505,-0.6331 1.3292,-0.7812 1.9623,-0.3307l9.4413 6.7407z"/>
   <path id="_266109216" class="fil6" d="M83.8746 87.4033c0.7762,0.0152 1.3932,0.657 1.378,1.4332 -0.0152,0.7762 -0.657,1.3932 -1.4332,1.378l-12.9638 -0.2602c-0.7762,-0.0152 -1.3932,-0.657 -1.378,-1.4332 0.0152,-0.7762 0.657,-1.3932 1.4332,-1.378l12.9638 0.2602z"/>
   <path id="_266109744" class="fil6" d="M84.2738 99.4593c0.7306,-0.2709 1.5426,0.1017 1.8135,0.8323 0.2709,0.7306 -0.1017,1.5426 -0.8323,1.8135l-7.0007 2.5978c-0.7306,0.2709 -1.5426,-0.1017 -1.8135,-0.8323 -0.2709,-0.7306 0.1017,-1.5426 0.8323,-1.8135l7.0007 -2.5978z"/>
   <path id="_266109336" class="fil6" d="M100.264 115.743c0.3318,-0.7032 1.1709,-1.0043 1.8741,-0.6725 0.7032,0.3318 1.0043,1.1709 0.6725,1.8741l-1.3415 2.827c-0.3318,0.7032 -1.1709,1.0043 -1.8741,0.6725 -0.7032,-0.3318 -1.0043,-1.1709 -0.6725,-1.8741l1.3415 -2.827z"/>
   <path id="_266109552" class="fil6" d="M114.881 116.614c-0.1582,-0.761 0.3304,-1.5064 1.0914,-1.6646 0.761,-0.1582 1.5064,0.3304 1.6646,1.0914l1.1269 5.365c0.1582,0.761 -0.3304,1.5064 -1.0914,1.6646 -0.761,0.1582 -1.5064,-0.3304 -1.6646,-1.0914l-1.1269 -5.365z"/>
   <path id="_266117112" class="fil0" d="M150.282 64.8761c1.1523,0 2.0867,0.9344 2.0867,2.0867 0,1.1523 -0.9344,2.0867 -2.0867,2.0867 -1.1523,0 -2.0867,-0.9344 -2.0867,-2.0867 0,-1.1523 0.9344,-2.0867 2.0867,-2.0867z"/>
   <path id="_266117016" class="fil0" d="M159.838 64.615c1.2119,0 2.1946,0.9827 2.1946,2.1946 0,1.2119 -0.9827,2.1946 -2.1946,2.1946 -1.2119,0 -2.1946,-0.9827 -2.1946,-2.1946 0,-1.2119 0.9827,-2.1946 2.1946,-2.1946z"/>
   <path id="_266116848" class="fil0" d="M203.838 85.7333c1.1523,0 2.0867,0.9344 2.0867,2.0867 0,1.1523 -0.9344,2.0867 -2.0867,2.0867 -1.1523,0 -2.0867,-0.9344 -2.0867,-2.0867 0,-1.1523 0.9344,-2.0867 2.0867,-2.0867z"/>
   <path id="_266116776" class="fil0" d="M213.083 85.7333c1.1523,0 2.0867,0.9344 2.0867,2.0867 0,1.1523 -0.9344,2.0867 -2.0867,2.0867 -1.1523,0 -2.0867,-0.9344 -2.0867,-2.0867 0,-1.1523 0.9344,-2.0867 2.0867,-2.0867z"/>
   <path id="_266116920" class="fil7" d="M177.099 72.6689c0.0007,-0.0299 0.0995,-9.9918 10.9715,-8.0998 0.4305,-5.3096 3.5996,-9.0529 7.6749,-10.991 1.7926,-0.8525 3.7639,-1.3491 5.7521,-1.4686 1.9926,-0.1198 4.0062,0.1395 5.8788,0.799 4.1729,1.4696 7.6309,4.8782 8.6217,10.4417 3.8716,-1.0768 12.6963,-2.1845 15.1929,9.0163 0.1778,0.8053 -0.3309,1.6026 -1.1362,1.7804 -0.1179,0.026 -0.2356,0.0372 -0.3512,0.0351l-51.1111 0.0096c-0.8247,0 -1.4934,-0.6687 -1.4934,-1.4934l0.0004 -0.0293 -0.0004 0z"/>
   <path id="_266117064" class="fil7" d="M228.329 161.752c-0.6883,0 -1.0973,-0.3878 -1.1957,-1.0955 -0.0415,-0.2971 0.0086,-0.8134 0.1869,-1.3851 0.1521,-0.4876 0.4073,-1.0771 0.7914,-1.6712 0.0144,-0.0222 0.0296,-0.0436 0.0452,-0.0645 1.0818,-1.6322 3.1135,-3.2594 6.5776,-2.8507 0.3205,-2.8753 2.0094,-4.8855 4.188,-5.943 1.0147,-0.4925 2.1387,-0.7721 3.2786,-0.8295 1.1359,-0.0571 2.289,0.1073 3.3664,0.502 2.4083,0.8824 4.4382,2.8849 5.0814,6.0953 2.2816,-0.4251 6.7512,-0.3933 8.1414,5.8439 0.136,0.6159 -0.253,1.2255 -0.8689,1.3615 -0.0893,0.0197 -0.1785,0.0283 -0.2661,0.0269l-29.3262 0.0054 0 0.0045z"/>
   <path id="_266116680" class="fil7" d="M44.7241 175.161c-0.7508,0 -1.1894,-0.4276 -1.2887,-1.2081 -0.0437,-0.3466 0.0181,-0.9817 0.2302,-1.6858 0.1911,-0.6347 0.5097,-1.3953 0.9885,-2.1381 1.2154,-1.8856 3.4158,-3.6734 7.0784,-3.1833 0.3165,-3.5749 2.2126,-6.0699 4.6513,-7.3589 1.1205,-0.5922 2.3575,-0.9249 3.6102,-0.9864 1.2524,-0.0615 2.5187,0.1485 3.6982,0.6415 2.6007,1.0869 4.7777,3.5177 5.4397,7.3999 2.5803,-0.53 7.6774,-0.5385 9.1861,7.0415 0.1305,0.6685 -0.3058,1.3164 -0.9743,1.4469 -0.1123,0.0219 -0.224,0.0278 -0.3328,0.0193l-32.2868 0.0067 0 0.0048z"/>
   <path id="_266116464" class="fil3" d="M216.35 177.513c0.8247,0 1.4934,0.6687 1.4934,1.4934 0,0.8247 -0.6687,1.4934 -1.4934,1.4934 -0.8247,0 -1.4934,-0.6687 -1.4934,-1.4934 0,-0.8247 0.6687,-1.4934 1.4934,-1.4934z"/>
   <path id="_266116320" class="fil3" d="M72.1392 231.148c0.6708,0 1.2147,0.5439 1.2147,1.2147 0,0.6708 -0.5439,1.2147 -1.2147,1.2147 -0.6708,0 -1.2147,-0.5439 -1.2147,-1.2147 0,-0.6708 0.5439,-1.2147 1.2147,-1.2147z"/>
   <path id="_266115960" class="fil3" d="M76.8638 230.876c0.8205,0 1.4859,0.6654 1.4859,1.486 0,0.8205 -0.6654,1.4859 -1.4859,1.4859 -0.8206,0 -1.486,-0.6654 -1.486,-1.4859 0,-0.8206 0.6654,-1.486 1.486,-1.486z"/>
   <path id="_266116032" class="fil3" d="M82.3302 230.876c0.8205,0 1.4859,0.6654 1.4859,1.486 0,0.8205 -0.6654,1.4859 -1.4859,1.4859 -0.8206,0 -1.486,-0.6654 -1.486,-1.4859 0,-0.8206 0.6654,-1.486 1.486,-1.486z"/>
   <path id="_266116656" class="fil3" d="M218.755 230.876c0.8205,0 1.4859,0.6654 1.4859,1.486 0,0.8205 -0.6654,1.4859 -1.4859,1.4859 -0.8206,0 -1.486,-0.6654 -1.486,-1.4859 0,-0.8206 0.6654,-1.486 1.486,-1.486z"/>
   <path id="_266116368" class="fil3" d="M224.221 230.876c0.8205,0 1.4859,0.6654 1.4859,1.486 0,0.8205 -0.6654,1.4859 -1.4859,1.4859 -0.8206,0 -1.486,-0.6654 -1.486,-1.4859 0,-0.8206 0.6654,-1.486 1.486,-1.486z"/>
   <path id="_266116608" class="fil8" d="M238.79 194.251c-4.7189,9.6544 -10.8828,18.4213 -18.1981,25.993l-138.102 0c-7.3153,-7.5717 -13.4792,-16.3386 -18.1981,-25.993l174.499 0z"/>
   <path id="_266116296" class="fil9" d="M189.14 67.8708c-6.2837,-1.6815 -8.2063,1.3488 -8.7948,3.3337l47.4013 -0.0089c-2.9925,-8.1525 -11.555,-4.8245 -12.3601,-4.4909 -0.1654,0.0794 -0.3483,0.1296 -0.5425,0.1433 -0.8247,0.0582 -1.5406,-0.5633 -1.5988,-1.388 -0.3791,-5.3081 -3.2839,-8.4674 -6.865,-9.7285 -1.492,-0.5254 -3.1048,-0.7315 -4.7076,-0.6352 -1.6072,0.0966 -3.2012,0.4982 -4.6509,1.1876 -3.5204,1.6742 -6.1718,5.0897 -6.0045,9.9956 0.0169,0.1735 0.0036,0.3529 -0.044,0.5312 -0.2134,0.7989 -1.0342,1.2735 -1.8331,1.0601z"/>
   <path id="_266116272" class="fil9" d="M230.029 158.845c-0.1351,0.209 -0.2463,0.4183 -0.3361,0.6178l26.4317 -0.0048c-1.7493,-4.1318 -6.0144,-2.4441 -6.0278,-2.439l-0.0001 -0.0002c-0.1023,0.0389 -0.212,0.0638 -0.3269,0.0719 -0.6307,0.0445 -1.1782,-0.4308 -1.2227,-1.0615 -0.2117,-2.9656 -1.8175,-4.7507 -3.7673,-5.4651 -0.7894,-0.2892 -1.6358,-0.4096 -2.4708,-0.3676 -0.8311,0.0419 -1.651,0.246 -2.3918,0.6055 -1.744,0.8465 -3.0363,2.595 -2.9463,5.1608 0.0088,0.1175 -0.0005,0.2383 -0.0301,0.3589 -0.1508,0.6134 -0.7705,0.9883 -1.3839,0.8375 -3.0465,-0.7557 -4.6901,0.4251 -5.4927,1.6278 -0.0111,0.0195 -0.0228,0.0389 -0.0352,0.058z"/>
   <path id="_266115672" class="fil9" d="M46.7281 171.46c-0.2722,0.4224 -0.471,0.8516 -0.6086,1.2359l29.3847 -0.0061c-1.7882,-5.1516 -6.3562,-3.5608 -6.9052,-3.3484 -0.1363,0.0639 -0.2865,0.1037 -0.4458,0.1137 -0.6792,0.0426 -1.2645,-0.4735 -1.3071,-1.1527 -0.235,-3.685 -1.9758,-5.8969 -4.0993,-6.7843 -0.842,-0.3519 -1.745,-0.5019 -2.637,-0.4581 -0.8917,0.0438 -1.775,0.2821 -2.5782,0.7066 -1.9977,1.0559 -3.4888,3.2958 -3.3784,6.6067 0.0079,0.1321 -0.0053,0.2676 -0.0425,0.4022 -0.1811,0.6552 -0.8593,1.0396 -1.5145,0.8585 -3.1885,-0.8856 -4.9641,0.4234 -5.8681,1.826z"/>
   <path id="_266115504" class="fil10" d="M79.0662 204.764c-0.6792,0.0026 -1.2321,-0.5459 -1.2347,-1.2251 -0.0026,-0.6792 0.5459,-1.2321 1.2251,-1.2347l16.3343 -0.1c0.6792,-0.0026 1.2321,0.5459 1.2347,1.2251 0.0026,0.6792 -0.5459,1.2321 -1.2251,1.2347l-16.3343 0.1z"/>
   <path id="_266115216" class="fil9" d="M103.839 204.764c-0.6792,0.0053 -1.2342,-0.5411 -1.2395,-1.2203 -0.0053,-0.6792 0.5411,-1.2342 1.2203,-1.2395l2.0105 -0.0172c0.6792,-0.0053 1.2342,0.5411 1.2395,1.2203 0.0053,0.6792 -0.5411,1.2342 -1.2203,1.2395l-2.0105 0.0172z"/>
   <path id="_266115480" class="fil10" d="M91.7191 213.364c-0.6792,0.0026 -1.2321,-0.5459 -1.2347,-1.2251 -0.0026,-0.6792 0.5459,-1.2321 1.2251,-1.2347l25.3557 -0.1c0.6792,-0.0026 1.2321,0.5459 1.2347,1.2251 0.0026,0.6792 -0.5459,1.2321 -1.2251,1.2347l-25.3557 0.1z"/>
   <path id="_266115360" class="fil9" d="M125.641 213.364c-0.6792,0.0026 -1.2321,-0.5459 -1.2347,-1.2251 -0.0026,-0.6792 0.5459,-1.2321 1.2251,-1.2347l4.9808 -0.0208c0.6792,-0.0026 1.2321,0.5459 1.2347,1.2251 0.0026,0.6792 -0.5459,1.2321 -1.2251,1.2347l-4.9808 0.0208z"/>
   <path id="_266115336" class="fil10" d="M144.219 213.364c-0.6792,0 -1.2299,-0.5507 -1.2299,-1.2299 0,-0.6792 0.5507,-1.2299 1.2299,-1.2299l29.3285 -0.1c0.6792,0 1.2299,0.5507 1.2299,1.2299 0,0.6792 -0.5507,1.2299 -1.2299,1.2299l-29.3285 0.1z"/>
   <path id="_266115720" class="fil9" d="M191.369 204.764c-0.6792,0.0026 -1.2321,-0.5459 -1.2347,-1.2251 -0.0026,-0.6792 0.5459,-1.2321 1.2251,-1.2347l2.6105 -0.0172c0.6792,-0.0026 1.2321,0.5459 1.2347,1.2251 0.0026,0.6792 -0.5459,1.2321 -1.2251,1.2347l-2.6105 0.0172z"/>
   <path id="_266115168" class="fil9" d="M199.889 204.764c-0.6792,0 -1.2299,-0.5507 -1.2299,-1.2299 0,-0.6792 0.5507,-1.2299 1.2299,-1.2299l4.8105 -0.0172c0.6792,0 1.2299,0.5507 1.2299,1.2299 0,0.6792 -0.5507,1.2299 -1.2299,1.2299l-4.8105 0.0172z"/>
   <path id="_266115816" class="fil10" d="M211.701 204.764c-0.6792,0 -1.2299,-0.5507 -1.2299,-1.2299 0,-0.6792 0.5507,-1.2299 1.2299,-1.2299l10.3974 -0.0172c0.6792,0 1.2299,0.5507 1.2299,1.2299 0,0.6792 -0.5507,1.2299 -1.2299,1.2299l-10.3974 0.0172z"/>
   <path id="_266115888" class="fil10" d="M177.824 213.364c-0.6792,0 -1.2299,-0.5507 -1.2299,-1.2299 0,-0.6792 0.5507,-1.2299 1.2299,-1.2299l13.383 -0.0456c0.6792,0 1.2299,0.5507 1.2299,1.2299 0,0.6792 -0.5507,1.2299 -1.2299,1.2299l-13.383 0.0456z"/>
   <path id="_266115744" class="fil10" d="M200.302 213.364c-0.6792,0.0026 -1.2321,-0.5459 -1.2347,-1.2251 -0.0026,-0.6792 0.5459,-1.2321 1.2251,-1.2347l2.9808 -0.0208c0.6792,-0.0026 1.2321,0.5459 1.2347,1.2251 0.0026,0.6792 -0.5459,1.2321 -1.2251,1.2347l-2.9808 0.0208z"/>
   <path id="_649734040" class="fil11" d="M109.845 234.803c-0.7762,0 -1.4056,-0.6294 -1.4056,-1.4056 0,-0.7762 0.6294,-1.4056 1.4056,-1.4056l8.1056 -0.0172c0.7762,0 1.4056,0.6294 1.4056,1.4056 0,0.7762 -0.6294,1.4056 -1.4056,1.4056l-8.1056 0.0172z"/>
   <path id="_649733944" class="fil11" d="M121.789 234.803c-0.7762,0.003 -1.4081,-0.6239 -1.4111,-1.4001 -0.003,-0.7762 0.6239,-1.4081 1.4001,-1.4111l0.9403 -0.0049c0.7762,-0.003 1.4081,0.6239 1.4111,1.4001 0.003,0.7762 -0.6239,1.4081 -1.4001,1.4111l-0.9403 0.0049z"/>
   <path id="_649733344" class="fil11" d="M174.275 234.803c-0.7762,0 -1.4056,-0.6294 -1.4056,-1.4056 0,-0.7762 0.6294,-1.4056 1.4056,-1.4056l8.7056 -0.0172c0.7762,0 1.4056,0.6294 1.4056,1.4056 0,0.7762 -0.6294,1.4056 -1.4056,1.4056l-8.7056 0.0172z"/>
   <path id="_649733272" class="fil12" d="M133.615 239.227c-0.7762,0 -1.4056,-0.6294 -1.4056,-1.4056 0,-0.7762 0.6294,-1.4056 1.4056,-1.4056l27.5434 -0.1c0.7762,0 1.4056,0.6294 1.4056,1.4056 0,0.7762 -0.6294,1.4056 -1.4056,1.4056l-27.5434 0.1z"/>
   <path id="_649730968" class="fil7" d="M191.628 101.302c0.3691,-0.1172 0.7348,-0.2312 1.0978,-0.3425 0.0728,0.7223 -0.2831,0.9031 -1.0978,0.3425z"/>
   <path id="_649730200" class="fil7" d="M201.623 106.614l38.6068 -15.0605 6.5015 -11.7116c0.3621,-0.6524 0.8103,-1.1764 1.3206,-1.5854 1.0741,-0.8608 2.3819,-1.1956 3.724,-1.1376 1.2397,0.0537 2.5138,0.4508 3.637,1.0743 0.9698,0.5384 1.8409,1.2523 2.4926,2.0656 0.4312,0.538 0.7732,1.1147 1.0475,1.7 0.266,0.5678 0.4636,1.1346 0.6147,1.6758 0.3329,1.1918 0.478,1.9794 0.3186,2.7835 -0.1725,0.8705 -0.6282,1.5131 -1.4884,2.3559l-10.0173 9.8141 -9.0182 33.1664 0.0601 0.0479c0.7979,0.6423 1.6422,1.3682 2.3742,2.1668 0.7989,0.8718 1.4423,1.8157 1.7292,2.8132 0.3695,1.2849 0.3723,2.5707 0.0438,3.6951 -0.3078,1.0536 -0.9012,1.9622 -1.7541,2.6083 -0.8452,0.6402 -1.926,1.0098 -3.2121,0.9904 -1.3899,-0.0208 -3.0226,-0.5043 -4.8416,-1.6193 -1.3994,-0.8577 -2.7155,-1.8524 -3.7895,-2.664l-0.0138 -0.0104c-3.6321,8.6781 -8.2159,16.4987 -13.0094,23.3075 -6.8128,9.6768 -14.0567,17.3216 -19.5913,22.4781 -9.1592,8.5339 -20.1636,14.6719 -31.9559,17.7245 -11.3347,2.9341 -23.3895,3.0191 -35.2281,-0.3556l0.001 -0.0037 -0.0066 -0.0018c-36.1425,-10.5713 -58.1569,-52.775 -61.5141,-59.6015 -0.8821,0.6142 -1.6695,1.0716 -2.3704,1.4053 -1.8417,0.8766 -3.4296,1.0462 -4.8135,0.5586 -1.3969,-0.4922 -2.4658,-1.6105 -3.2689,-3.3078 -0.9345,-1.9756 -0.6499,-3.733 0.2699,-5.3133 0.6605,-1.1347 1.6441,-2.1326 2.7043,-3.0361 -1.3537,-4.7439 -8.2366,-28.7928 -10.2798,-34.5112l-9.172 -9.7037c-1.6413,-1.7365 -1.9641,-3.7809 -1.4528,-5.7297 0.3139,-1.1966 0.9487,-2.3388 1.7807,-3.3251 0.8116,-0.9619 1.8251,-1.7905 2.919,-2.3845 2.0909,-1.1353 4.4927,-1.4245 6.4708,-0.2406 0.5799,0.3471 1.1534,0.8352 1.6924,1.507 0.4516,0.5629 0.8849,1.2636 1.2833,2.1309 0.8251,1.7955 1.7309,3.418 2.5754,4.7871 0.8417,1.3645 1.6274,2.4832 2.2109,3.2705 0.4844,0.6536 0.7404,1.0989 0.8458,1.6342 0.112,0.5691 0.029,1.0078 -0.1689,1.6297 4.4489,2.7003 25.7255,15.6433 30.5801,19.1351 1.2417,-0.6849 2.5686,-1.236 3.7476,-1.3196 2.1209,-0.1505 3.7277,0.8253 3.9513,3.9778 0.0576,0.8111 -0.0679,1.6159 -0.2222,2.2534l9.7073 7.28c4.6693,0.7037 12.2138,-1.6773 14.206,-2.3474 0.5266,-0.6217 1.0464,-1.2583 1.5519,-1.9212 2.4533,-3.2167 3.5479,-6.8315 4.6821,-10.5779 0.8339,-2.7541 1.6885,-5.5763 3.1302,-8.4773 3.9172,-7.8817 11.3719,-13.0528 19.8179,-15.4211 8.9893,-2.5206 19.1363,-1.865 27.3177,2.0843 4.6134,2.2269 9.771,5.743 13.8268,11.2448 0.83,1.1259 1.6131,2.3338 2.3352,3.6299 0.1109,0.0344 0.2193,0.0833 0.3227,0.1471 0.0275,0.017 2.7107,1.6703 6.788,4.2248zm-87.77 25.5846c-0.3733,0.0107 -0.7276,0.0361 -1.0542,0.0697 0.2373,0.2315 0.468,0.4632 0.6928,0.695 0.1166,-0.2593 0.2371,-0.5141 0.3614,-0.7647zm-32.6153 20.4687c2.263,2.4505 4.4676,4.666 6.5772,6.6634 0.9608,0.9097 1.9021,1.7742 2.8206,2.5953 0.7665,-1.1189 1.6221,-2.203 2.5514,-3.1313 -0.0785,-0.5474 -0.1378,-1.0349 -0.1808,-1.4245 -1.7905,-0.4992 -3.7787,-1.8125 -5.7284,-4.6189 -0.0503,-0.0724 -0.0928,-0.1478 -0.1279,-0.2254 -0.6811,-1.2531 -1.2581,-2.4802 -1.6497,-3.756 -0.7128,0.8566 -2.3386,2.6698 -4.2624,3.8974zm117.908 -33.0585c0.0167,0.886 0.0124,1.7717 0.0066,2.6723 0.5482,-0.6364 1.0614,-1.244 1.4745,-1.7374l-1.4811 -0.9349zm-1.9737 40.7279c0.6309,-0.4801 1.2568,-0.969 1.8765,-1.4664l-0.7235 -0.9275c-0.3398,0.8026 -0.7226,1.6009 -1.153,2.3939zm2.2692 -5.5345l1.7723 2.2721c3.302,-2.8326 5.7619,-5.7683 8.5007,-9.1052 -1.7404,-1.681 -5.5294,-5.3925 -7.48,-7.3073 -0.6166,0.767 -1.1034,1.363 -1.3973,1.7206 0.0486,3.3987 -0.1129,6.8533 -0.8554,10.2856 -0.1542,0.713 -0.3333,1.4247 -0.5403,2.1342zm12.3223 -27.1612c-2.0489,3.3531 -5.292,7.6496 -7.7691,10.8051 1.7949,1.7622 5.4593,5.54 7.3198,7.3393 3.1432,-4.7024 5.4277,-8.4766 7.9542,-13.2958 -2.6448,-1.7371 -4.8251,-3.125 -7.5049,-4.8486zm1.2914 20.0028l0.9937 1.6447c4.3025,-4.014 8.3603,-8.1206 12.1389,-12.1724 -1.4718,-1.0013 -2.7259,-2.0183 -4.4488,-3.1564 -2.4315,4.6233 -5.6268,9.1442 -8.8099,13.306 0.0603,0.1203 0.1024,0.2478 0.1261,0.3781zm-10.0314 -25.5829c-0.9091,1.0908 -2.4903,2.9625 -3.8062,4.3878 0.1363,2.1889 0.4456,4.3703 0.7552,6.5545 0.2425,1.7106 0.4852,3.4231 0.6497,5.1761 2.4963,-3.1287 6.4686,-8.2656 8.7712,-12.0594 -2.3414,-1.4995 -4.5285,-2.8912 -6.3699,-4.059zm-12.8988 46.1867c1.7476,-1.1349 3.4728,-2.311 5.1739,-3.5224 1.7875,-1.273 3.5483,-2.5851 5.2813,-3.9286l-0.4209 -0.5627c-1.931,1.5503 -3.9199,3.018 -5.9315,4.4006 -1.4996,1.0308 -3.0118,2.0143 -4.5216,2.9497l0.4188 0.6634zm12.6637 -9.1919c3.1492,-2.5237 6.2006,-5.1449 9.1439,-7.8186l-0.9359 -1.549c-2.6341,3.1641 -5.5451,6.0709 -8.6706,8.7491l0.4626 0.6185zm-25.9681 16.7343c3.7239,-1.7992 7.3708,-3.8274 10.9288,-6.0343l-0.4527 -0.7171c-3.1449,1.8492 -6.2454,3.4852 -9.1667,4.8994 -0.5671,0.2745 -1.1532,0.5543 -1.7574,0.8375 0.0266,0.0466 0.051,0.095 0.0727,0.1455l0.3753 0.869zm-14.404 5.6039c4.0198,-1.1778 7.9734,-2.6666 11.8478,-4.4111l-0.4097 -0.9484c-0.0135,-0.0313 -0.0256,-0.063 -0.0367,-0.0947 -3.4303,1.5169 -7.3439,3.0528 -11.6626,4.3264l0.0039 0.0162c0.0017,0.0073 0.0949,0.4142 0.2573,1.1116zm-15.6708 2.8461c3.267,-0.2163 6.5335,-0.6718 9.789,-1.3608 1.0588,-0.2241 2.1136,-0.4709 3.1641,-0.7396 -0.1297,-0.5564 -0.2198,-0.9468 -0.2603,-1.1231 -0.6898,0.1776 -1.3889,0.3477 -2.0969,0.5091 -3.3761,0.7696 -6.9525,1.3423 -10.6973,1.6071 0.0314,0.3476 0.0652,0.718 0.1014,1.1073zm-15.809 -1.3382l0.0353 0.2557c0.0111,0.08 0.0151,0.1593 0.0127,0.2374 4.2935,0.7564 8.6163,1.0758 12.9438,0.9721 -0.0362,-0.3864 -0.0699,-0.7524 -0.1011,-1.0961 -4.407,0.1211 -9.0313,-0.2166 -12.8892,-0.8647l-0.0015 0.4956zm-13.3376 -4.0267c-0.0234,0.0062 -0.047,0.0118 -0.0709,0.0168 -0.0465,0.1458 -0.0959,0.4047 -0.1475,0.5763 3.4914,1.4148 7.0188,2.5182 10.568,3.3177l0.1337 0.0298 -0.1081 -0.7829c-3.4871,-0.6287 -7.0922,-1.8862 -10.3752,-3.1577zm-13.0455 -7.0716c-0.068,0.1191 -0.3349,0.5412 -0.4004,0.666 3.4916,2.3035 7.0407,4.2627 10.632,5.8865 0.0543,-0.1755 0.1058,-0.537 0.1539,-0.6842 -3.9442,-1.7441 -7.353,-3.9113 -10.3855,-5.8683zm-10.6967 -9.5249c-0.3834,0.4853 -0.7487,0.9929 -1.0939,1.5083 3.1867,2.7285 6.0361,4.9034 8.3793,6.6001 0.2266,0.1641 0.4534,0.3266 0.6805,0.4877 0.0619,-0.1134 0.316,-0.5313 0.3799,-0.6409 -4.3372,-2.9946 -7.2079,-5.5929 -7.2257,-5.6088l0.001 -0.0011c-0.1508,-0.134 -0.275,-0.3026 -0.3592,-0.5005 -0.3002,-0.7046 -0.5518,-1.0145 -0.7619,-1.8448zm151.283 -62.5203l-14.42 25.7258c2.3348,1.6025 4.4555,3.1003 6.2248,4.4134l8.1952 -30.1392zm-3.5351 0.5428l-17.5805 20.6794c1.4911,0.9865 2.9522,1.9621 4.3572,2.9115l13.2233 -23.5909zm-1.2611 -2.8644l-24.5474 18.176c1.9455,1.254 3.9159,2.5333 5.8585,3.8072l18.6889 -21.9832zm-1.7047 -2.2385l-34.0452 13.2811c2.6139,1.6463 5.5793,3.5256 8.6714,5.5068l25.3738 -18.7879zm-152.524 19.5875l0.3256 -0.2427 0.0006 0.0008 0.2283 -0.1708c0.3373,-0.2529 0.7706,-0.5776 1.2692,-0.931 -4.2442,-2.8926 -17.081,-10.7658 -24.6261,-15.3657l22.8024 16.7094zm-22.5537 16.9318l1.3082 -1.043 0.0017 0.0021 0.0313 -0.0242 2.1251 -1.5912 -11.9075 -26.0593c2.635,8.4809 6.9165,23.3839 8.4412,28.7156zm5.7699 -4.3808l3.5288 -2.6415 -12.0158 -15.932 8.487 18.5735zm5.7849 -4.3299l3.1129 -2.3287 -18.747 -18.401 15.6341 20.7297zm5.3931 -4.034c1.1633,-0.8698 2.2636,-1.6921 3.2458,-2.4257l-22.5592 -16.5312 19.3134 18.9569zm-3.8849 18.0681c-2.715,2.1611 -4.6605,3.65 -5.0028,3.9113l-0.0743 0.0666c2.6175,3.4894 5.226,6.6583 7.775,9.5308 1.5236,-0.8319 2.9436,-2.32 3.7182,-3.2159 -1.5917,-2.5352 -4.9138,-7.8761 -6.4161,-10.2928zm28.1096 -11.6828l-8.1486 -6.1111c-0.6934,0.7936 -1.4916,1.6409 -2.3669,2.5233 0.6141,0.7191 1.4284,1.7474 2.0458,2.7977 0.7533,-0.5441 1.4158,-1.1159 1.4187,-1.1184l0.0008 0.0009c0.403,-0.3444 0.9846,-0.4451 1.4985,-0.2104 2.0161,0.927 3.8511,1.8958 5.5221,2.8931 1.565,0.934 0.7669,-0.2221 0.0296,-0.7751zm-14.6735 3.7871c0.7778,-1.6751 2.3957,-2.6057 3.7328,-3.2382 -0.4588,-0.7769 -1.0825,-1.5711 -1.5897,-2.1693 -1.4433,1.3704 -3.0135,2.7897 -4.6219,4.1987l0.0017 0.0019c0.8114,0.3525 1.6387,0.7572 2.4771,1.2069zm-4.7879 0.7864c-2.2282,1.9007 -4.4492,3.7295 -6.4345,5.3339 1.2831,2.0648 4.3569,7.0088 6.1055,9.8046 0.0023,-0.2805 0.0145,-0.565 0.0375,-0.854 0.103,-1.2944 0.3275,-2.8348 0.873,-3.9876 0.3711,-0.784 0.8505,-1.4059 1.4705,-1.7526 -1.0506,-3.147 -1.7657,-6.8997 -2.052,-8.5443zm33.1405 -4.3099c-3.74,0.952 -7.2394,1.0369 -10.9436,1.3762 -1.4236,0.1301 -1.2681,0.0416 -0.159,0.8015 1.0027,0.687 1.9358,1.3839 2.8041,2.0865 0.5562,-0.1426 2.8098,-0.663 5.3531,-0.4552 0.9039,-1.3498 1.9057,-2.5947 2.9454,-3.809z"/>
   <path id="_649730056" class="fil9" d="M43.7747 87.4925l8.8242 9.3358c0.9155,-0.6444 1.9849,-1.5187 2.8912,-2.4683 0.7926,-0.8306 1.4392,-1.6921 1.6831,-2.4409 0.0691,-0.2123 0.1123,-0.2922 0.1094,-0.3074 -0.0089,-0.0452 -0.1164,-0.1987 -0.3388,-0.4988 -0.6131,-0.8272 -1.4427,-2.0092 -2.3431,-3.4689 -0.8975,-1.4551 -1.8612,-3.1814 -2.7408,-5.0957 -0.2921,-0.6359 -0.602,-1.14 -0.9195,-1.5357 -0.3187,-0.3972 -0.6361,-0.6728 -0.9428,-0.8564 -1.0295,-0.6162 -2.4113,-0.3941 -3.6816,0.2956 -0.7852,0.4263 -1.5193,1.029 -2.1142,1.7341 -0.5745,0.6811 -1.0058,1.4428 -1.2075,2.2117 -0.2767,1.0547 -0.1038,2.1595 0.7804,3.0949z"/>
   <path id="_649730032" class="fil13" d="M43.7747 87.4925l8.8242 9.3358c0.9155,-0.6444 1.9849,-1.5187 2.8912,-2.4683 0.1063,-0.1114 0.21,-0.2234 0.3105,-0.3356 0.379,-0.5449 0.1349,-0.8203 0.0084,-1.162 -0.7181,-1.939 -5.6709,-8.631 -5.9045,-8.9728 -0.3656,-0.535 -0.669,-1.1123 -1.0134,-1.6608 0.1494,0.4783 -0.7785,1.7385 -2.1958,2.9457 -1.4803,1.2606 -2.9514,2.0007 -3.3532,1.6986l-0.0225 0.0268c0.1235,0.2034 0.2745,0.4015 0.4551,0.5926z"/>
   <path id="_649728808" class="fil14" d="M43.7747 87.4925l8.8242 9.3358c0.8488,-0.5974 1.8299,-1.3925 2.6906,-2.262 -2.5183,-2.5091 -8.7446,-10.1062 -8.7446,-10.1062 -0.2923,-0.0107 -0.5716,-0.0147 -0.8381,-0.0122 -1.1103,0.982 -1.9641,1.9473 -2.3871,2.452 0.1235,0.2033 0.2743,0.4015 0.455,0.5926z"/>
   <path id="_649728928" class="fil9" d="M66.6211 132.879l-2.9666 2.3652c-1.1027,0.8792 -2.1611,1.8338 -2.7465,2.8395 -0.4749,0.816 -0.6272,1.7122 -0.1597,2.7005 0.4722,0.9982 1.0176,1.6265 1.6593,1.8526 0.6546,0.2306 1.531,0.0909 2.6639,-0.4484 0.6377,-0.3035 1.3567,-0.7262 2.1646,-1.3019 0.7513,-0.5355 1.5921,-1.2121 2.532,-2.0588 0.0433,-0.0389 0.0883,-0.0746 0.1348,-0.1072 0.9717,-0.7415 17.8003,-13.6179 24.4829,-21.2329 0.6968,-0.7941 1.8571,-4.29 0.021,-4.1599 -1.8312,0.1299 -4.7574,2.3237 -6.0517,3.294l-0.2345 0.1755 -0.0063 0.0046 0.0007 0.0009c-7.1863,5.3538 -14.3386,10.7148 -21.4952,16.0747l0.0013 0.0016z"/>
   <path id="_649728880" class="fil13" d="M61.366 141.821c0.3168,0.4079 0.6623,0.6822 1.0416,0.8158 0.6546,0.2306 1.531,0.0909 2.6639,-0.4484 0.6377,-0.3035 1.3567,-0.7262 2.1646,-1.3019 0.7513,-0.5355 1.5921,-1.2121 2.532,-2.0588 0.0433,-0.0389 0.0883,-0.0746 0.1348,-0.1072 0.9717,-0.7415 17.8003,-13.6179 24.4829,-21.2329 0.4262,-0.4858 1.0258,-1.9824 1.007,-3.0417 -0.3806,0.1369 -0.7775,0.3319 -1.1922,0.5978 -4.8035,3.0799 -19.7565,15.028 -26.7498,20.7233 -2.0363,1.6585 -4.8124,3.5739 -6.0848,6.054z"/>
   <path id="_649742320" class="fil14" d="M62.0374 142.456c0.1198,0.0761 0.2431,0.1367 0.3702,0.1815 0.6546,0.2306 1.531,0.0909 2.6639,-0.4484 0.6377,-0.3035 1.3567,-0.7262 2.1646,-1.3019 0.7513,-0.5355 1.5921,-1.2121 2.532,-2.0588 0.0433,-0.0389 0.0883,-0.0746 0.1348,-0.1072 0.9717,-0.7415 17.8003,-13.6179 24.4829,-21.2329 0.3171,-0.3614 0.7302,-1.2825 0.9131,-2.1666 -0.3405,0.1377 -0.6939,0.324 -1.0604,0.5649 -4.7677,3.1349 -19.5823,15.2542 -26.5096,21.0296 -1.857,1.5483 -4.3388,3.3216 -5.6915,5.5398z"/>
   <path id="_649742200" class="fil15" d="M197.28 179.584l0.8491 1.3451c2.8728,-2.8301 6.0642,-6.2219 9.3328,-10.124 -1.0889,1.008 -2.1607,1.9767 -3.2142,2.9081 -2.4271,2.1457 -4.7546,4.0929 -6.9677,5.8708z"/>
   <path id="_649742128" class="fil15" d="M182.919 189.783c0.4407,0.9946 0.8211,1.8447 1.1048,2.4646 4.0459,-2.5125 7.8733,-5.4403 11.4161,-8.7412 0.2046,-0.1906 0.4118,-0.385 0.621,-0.5825l-0.9992 -1.583c-1.6075,1.2554 -3.1469,2.4203 -4.6118,3.507 -2.4541,1.8206 -4.9681,3.4644 -7.5309,4.9351z"/>
   <path id="_649742272" class="fil15" d="M166.272 196.774c0.3301,1.1748 0.6444,2.2328 0.9272,3.0957 4.9904,-1.4994 9.8181,-3.578 14.3934,-6.1771 -0.2911,-0.6304 -0.6881,-1.5134 -1.1494,-2.5512 -4.602,2.4139 -9.3466,4.2848 -14.1712,5.6326z"/>
   <path id="_649741960" class="fil15" d="M148.593 199.398c0.249,1.3851 0.5071,2.5247 0.7672,3.2589 5.1262,-0.0791 10.1944,-0.7745 15.1211,-2.0324 -0.2884,-0.8935 -0.6053,-1.9665 -0.9358,-3.1461 -4.9351,1.1715 -9.9411,1.8049 -14.9525,1.9196z"/>
   <path id="_649741000" class="fil15" d="M131.38 197.764c0.0874,1.0085 0.1918,1.9168 0.3159,2.6696 4.9025,1.3335 9.8388,2.0511 14.737,2.2007 -0.2294,-0.8837 -0.453,-1.9873 -0.6676,-3.2271 -2.2853,-0.0363 -4.5693,-0.1797 -6.8456,-0.4284 -2.5257,-0.276 -5.0417,-0.6821 -7.5397,-1.2148z"/>
   <path id="_649741696" class="fil15" d="M112.761 191.659c0.0023,-0.1351 0.0051,-0.2697 0.0085,-0.4034 -0.8275,-0.4097 -1.65,-0.8342 -2.4672,-1.2737 0.8083,0.5726 1.6279,1.1321 2.4587,1.6771z"/>
   <path id="_649741744" class="fil15" d="M115.565 192.575c0.0001,0.279 0.0027,0.5613 0.0076,0.846 4.1318,2.4678 8.522,4.5596 13.1604,6.1133 -0.0861,-0.7444 -0.1605,-1.5672 -0.2243,-2.4402 -4.3974,-1.1158 -8.7277,-2.6268 -12.9437,-4.5191z"/>
   <path id="_649741528" class="fil15" d="M87.427 167.654c0.4306,-0.9292 1.0035,-2.0843 1.6983,-3.3037 -1.0539,-0.9357 -2.1388,-1.9282 -3.2503,-2.9805 -3.0633,-2.9004 -6.3241,-6.253 -9.6741,-10.1087 2.7521,4.6185 6.5154,10.3953 11.2261,16.3929zm138.911 -26.5905c-3.3977,3.5699 -7.0056,7.1643 -10.8018,10.6866l2.561 4.2386c0.1345,-0.1497 0.269,-0.2997 0.4037,-0.4506 0.0631,-0.0705 0.1317,-0.133 0.2045,-0.1877 2.759,-4.4247 5.3591,-9.1992 7.6326,-14.2869zm-12.9223 12.6282c-2.8808,2.603 -5.8639,5.1559 -8.9405,7.6186l3.7042 4.9524c2.5661,-2.4688 5.2174,-5.1593 7.9373,-8.1006l-2.701 -4.4704zm-21.7885 16.9357l4.1423 6.5622c2.1094,-1.6998 4.3197,-3.5523 6.6158,-5.5823 1.2223,-1.0807 2.4696,-2.2121 3.7397,-3.3977l-3.8589 -5.1592c-1.7505,1.3562 -3.5294,2.6812 -5.3357,3.9675 -1.743,1.2412 -3.5112,2.4463 -5.3032,3.6095zm-13.6879 7.7482c1.0729,2.4766 2.5509,5.8805 3.8384,8.8156 2.3796,-1.3781 4.7154,-2.9109 6.9971,-4.6035 1.5159,-1.1246 3.1115,-2.3328 4.7783,-3.6378l-4.3015 -6.8145c-3.6792,2.2832 -7.454,4.3807 -11.3123,6.2402zm-14.8761 5.7638c0.6524,2.7411 1.5729,6.5228 2.4698,9.916 4.6895,-1.3109 9.3003,-3.1356 13.7704,-5.4943 -1.3124,-2.9856 -2.8232,-6.4622 -3.9206,-8.9943 -4.0244,1.8106 -8.1352,3.3543 -12.3196,4.5726zm-16.0468 2.9049c0.3023,3.0164 0.6924,6.5338 1.1276,9.5448 4.9137,-0.0859 9.8238,-0.6896 14.6635,-1.8312 -0.8969,-3.3938 -1.8097,-7.1381 -2.4621,-9.8761 -1.0709,0.2732 -2.1466,0.5245 -3.2265,0.7531 -3.3586,0.7108 -6.7297,1.1823 -10.1025,1.4094zm-16.0679 -0.8004c0.0231,2.5442 0.0845,5.7189 0.2348,8.5949 2.6601,0.5974 5.342,1.0456 8.0349,1.3399 2.0301,0.2218 4.0666,0.3564 6.1045,0.4028 -0.439,-3.0542 -0.8237,-6.4814 -1.1202,-9.4047 -4.4282,0.1186 -8.8544,-0.1877 -13.254,-0.9329zm-14.2792 -4.0274c-0.4238,1.9152 -0.8337,4.3929 -1.0115,7.3045 4.1255,1.9255 8.368,3.4703 12.6796,4.619 -0.134,-2.922 -0.1861,-6.019 -0.204,-8.4338 -0.2675,-0.0569 -0.5349,-0.1154 -0.8021,-0.1756 -3.5827,-0.807 -7.1413,-1.9092 -10.662,-3.3141zm-13.6254 -7.1052c-0.7689,2.2419 -1.2568,4.6245 -1.4974,5.9686 3.6491,2.7129 7.4607,5.0865 11.3915,7.1076 0.2379,-2.8157 0.6728,-5.2166 1.1065,-7.0779 -3.7185,-1.6529 -7.3907,-3.6494 -11.0006,-5.9983zm-11.7579 -8.8833c-0.8906,1.62 -1.5393,3.0794 -1.8792,3.889 2.7531,3.3476 6.2802,6.333 9.6491,9.0381 0.3357,-1.5886 0.8572,-3.6843 1.5938,-5.66 -0.3878,-0.2714 -0.7748,-0.5467 -1.161,-0.8264 -2.3014,-1.6664 -5.0853,-3.7887 -8.2027,-6.4407z"/>
   <path id="_649741216" class="fil16" d="M88.453 165.578c0.2091,-0.3974 0.4335,-0.8087 0.6723,-1.2278 -1.0539,-0.9357 -2.1388,-1.9282 -3.2503,-2.9805 -3.0548,-2.8923 -6.3059,-6.2344 -9.6461,-10.0765 2.9194,4.0831 7.6552,9.5139 12.2241,14.2848zm2.065 2.118c2.9352,2.9543 6.0779,5.6412 9.3872,8.0549 0.2184,-0.7466 0.4659,-1.5098 0.7441,-2.2559 -0.3878,-0.2714 -0.7748,-0.5467 -1.161,-0.8264 -2.3014,-1.6664 -5.0853,-3.7887 -8.2027,-6.4407 -0.2806,0.5104 -0.5371,1.0049 -0.7676,1.4681zm11.8216 9.7642c3.5651,2.3979 7.3051,4.4883 11.1733,6.2636 0.1676,-0.96 0.3495,-1.8345 0.5312,-2.6143 -3.7185,-1.6529 -7.3907,-3.6494 -11.0006,-5.9983 -0.2684,0.7826 -0.5026,1.5823 -0.7039,2.349zm13.8242 7.4236c3.9016,1.622 7.9192,2.9307 12.0087,3.9132 -0.0203,-1.1003 -0.0325,-2.1477 -0.0395,-3.0909 -0.2675,-0.0569 -0.5349,-0.1154 -0.8021,-0.1756 -3.5827,-0.807 -7.1413,-1.9092 -10.662,-3.3141 -0.176,0.7952 -0.3495,1.6874 -0.5051,2.6674zm14.8311 4.5362c4.4854,0.9068 9.0427,1.4266 13.614,1.5458 -0.1489,-1.3074 -0.2852,-2.5906 -0.4068,-3.7891 -4.4282,0.1186 -8.8544,-0.1877 -13.254,-0.9329 0.0089,0.9825 0.0236,2.0591 0.0468,3.1762zm16.4401 1.5688c4.7009,-0.0481 9.4034,-0.5218 14.0445,-1.4346 -0.42,-1.6954 -0.8096,-3.3088 -1.1345,-4.6725 -1.0709,0.2732 -2.1466,0.5245 -3.2265,0.7531 -3.3586,0.7108 -6.7297,1.1823 -10.1025,1.4094 0.1255,1.2525 0.2663,2.5914 0.419,3.9446zm16.7974 -2.0293c4.5192,-1.0653 8.9666,-2.556 13.2839,-4.4821 -0.7695,-1.7653 -1.517,-3.4873 -2.1339,-4.9107 -4.0244,1.8106 -8.1352,3.3543 -12.3196,4.5726 0.333,1.399 0.7358,3.0691 1.1696,4.8202zm15.8373 -5.6771c3.5848,-1.7662 7.0694,-3.8414 10.417,-6.2372 0.4241,-0.3035 0.8497,-0.6138 1.2764,-0.9305l-2.5119 -3.9794c-3.6792,2.2832 -7.454,4.3807 -11.3123,6.2402 0.6146,1.4188 1.3622,3.1419 2.1308,4.9069zm13.9366 -8.8855c3.3017,-2.6096 6.6504,-5.6209 9.9457,-9.0921l-1.6863 -2.2545c-1.7505,1.3562 -3.5294,2.6812 -5.3357,3.9675 -1.743,1.2412 -3.5112,2.4463 -5.3032,3.6095l2.3795 3.7696zm11.8836 -11.1947c2.5658,-2.8672 5.0867,-6.0241 7.5138,-9.5001 -2.8772,2.5993 -5.8564,5.1487 -8.9289,7.6081l1.4151 1.892z"/>
   <path id="_649741624" class="fil9" d="M118.397 176.269c2.9119,1.1389 6.109,2.0955 9.173,2.8376l-2.5291 -18.3205c-3.9658,1.9989 -7.5787,1.0474 -9.8665,-0.0616 0.5455,3.4908 1.336,7.014 2.1199,10.5066 0.3741,1.6674 0.7468,3.3281 1.1027,5.0379z"/>
   <path id="_649741600" class="fil17" d="M120.161 176.926c2.4117,0.854 4.9532,1.5866 7.4093,2.1815l-2.5291 -18.3205c-2.5611,1.2909 -4.9749,0.8918 -6.9798,0.4739 0.7848,4.9536 1.0518,8.7336 1.5789,12.9029 0.1179,0.9329 0.2789,1.8598 0.5207,2.7622z"/>
   <path id="_649741024" class="fil18" d="M120.161 176.926c2.4117,0.854 4.9532,1.5866 7.4093,2.1815l-0.4801 -3.4781c-2.3236,-0.2516 -4.8026,-0.6575 -7.423,-1.2587 0.1153,0.8631 0.2699,1.7196 0.4938,2.5553z"/>
   <path id="_649740280" class="fil9" d="M126.897 153.641l3.5821 25.9487c4.7639,0.4948 13.5829,0.2017 27.8261,-4.3967l-0.2274 -4.5853c-0.8352,0.1413 -1.7331,0.2467 -2.699,0.3106 -0.9076,0.1507 -8.534,1.1411 -10.7046,-7.7919 -0.0138,-0.0571 -0.0238,-0.1142 -0.0304,-0.1711l-0.0027 0.0003c-0.4055,-3.5279 0.4889,-5.5985 2.2046,-6.8614 1.593,-1.1725 3.7716,-1.472 6.2173,-1.5897 0.862,-0.0414 1.8526,-0.184 2.787,-0.5385l-0.0007 -0.0018c0.5092,-0.1936 1.0022,-0.4526 1.4449,-0.7963l-0.2625 -6.0054c-5.6061,1.1536 -24.2344,5.0071 -30.1347,6.4785z"/>
   <path id="_649739584" class="fil17" d="M132.207 179.72c5.0493,0.2473 13.4273,-0.4362 26.0984,-4.527l-0.2274 -4.5853c-0.8352,0.1413 -1.7331,0.2467 -2.699,0.3106 -0.9076,0.1507 -8.534,1.1411 -10.7046,-7.7919 -0.0138,-0.0571 -0.0238,-0.1142 -0.0304,-0.1711l-0.0027 0.0003c-0.4055,-3.5279 0.4889,-5.5985 2.2046,-6.8614 1.593,-1.1725 3.7716,-1.472 6.2173,-1.5897 0.862,-0.0414 1.8526,-0.184 2.787,-0.5385l-0.0007 -0.0018c0.5092,-0.1936 1.0022,-0.4526 1.4449,-0.7963l-0.1961 -4.4863c-3.3963,0.7736 -22.2349,4.8687 -28.2737,6.3263 0,0 2.7005,17.9469 3.3824,24.7121z"/>
   <path id="_649738192" class="fil18" d="M132.207 179.72c5.0493,0.2473 13.4273,-0.4362 26.0984,-4.527l-0.2274 -4.5853c-0.8352,0.1413 -1.7331,0.2467 -2.699,0.3106 -0.7048,0.117 -5.4613,0.7394 -8.5682,-3.1716 0.4576,1.3635 1.3405,3.4536 2.871,5.2624 0,0 -6.5914,3.2479 -17.9109,2.9391 0.181,1.4481 0.3321,2.7403 0.4361,3.7718z"/>
   <path id="_649738048" class="fil9" d="M114.52 153.106c-0.0146,0.9464 0.0135,2.1063 0.1329,3.4441 0.0185,0.2076 0.0384,0.4153 0.0594,0.6233 0.4166,0.3207 1.399,1.0034 2.7457,1.4695 -0.2374,-0.9986 -0.3996,-1.6019 -0.3996,-1.6019 2.3271,0.4541 5.7077,-0.6518 7.2925,-1.2506l-0.1955 -1.4164c-3.394,0.9117 -6.397,1.4498 -9.6354,-1.268zm2.938 5.5369c1.8676,0.6465 4.436,0.8765 7.1688,-0.8539l-0.2759 -1.9986c-1.5848,0.5988 -4.9654,1.7047 -7.2925,1.2506 0,0 0.1622,0.6033 0.3996,1.6019z"/>
   <path id="_649738072" class="fil17" d="M117.388 158.618l0.0699 0.0245c-0.2374,-0.9986 -0.3996,-1.6019 -0.3996,-1.6019 2.0422,0.3985 4.8956,-0.4043 6.6348,-1.0116 -1.6105,0.4985 -4.2548,1.1517 -6.7003,1.0062 0,0 0.1585,0.5817 0.3952,1.5828zm6.9662 -2.8031c-0.1933,0.0656 -0.4152,0.138 -0.6611,0.2141 -1.7392,0.6073 -4.5926,1.4101 -6.6348,1.0116 0,0 0.1622,0.6033 0.3996,1.6019 1.8676,0.6465 4.436,0.8765 7.1688,-0.8539l-0.2725 -1.9737z"/>
   <path id="_649737928" class="fil9" d="M88.4284 131.465c0.4264,2.1252 1.1045,5.0472 1.9714,7.2645 0.8243,0.4502 1.7144,0.8628 2.5962,1.2716 3.3546,1.555 6.6049,3.0619 7.9564,7.0776 0.3835,1.1397 0.631,2.4841 0.5098,3.9513 -0.1215,1.4716 -0.6102,3.0602 -1.6969,4.6791 -0.0791,0.1181 -0.1732,0.2205 -0.2778,0.3061l0.0022 0.0026c-0.0087,0.0071 -1.4623,1.2202 -3.6266,1.5335 0.1807,1.5 0.5557,3.9362 1.2285,5.6798 1.3935,1.209 8.7111,7.3619 18.142,11.6927 -0.2216,-1.0128 -0.4527,-2.0423 -0.6843,-3.0744 -1.1157,-4.9713 -2.2451,-10.0037 -2.6963,-15.0563 -0.2683,-3.0058 -0.1108,-5.237 0.0069,-6.3004 -4.8647,-4.8797 -14.8932,-14.5659 -23.4315,-19.0277z"/>
   <path id="_649738288" class="fil17" d="M94.1467 140.539c2.9265,1.3963 5.6097,2.9851 6.8057,6.5389 0.3835,1.1397 0.631,2.4841 0.5098,3.9513 -0.1215,1.4716 -0.6102,3.0602 -1.6969,4.6791 -0.0791,0.1181 -0.1732,0.2205 -0.2778,0.3061l0.0022 0.0026c-0.0046,0.0037 -0.4105,0.3423 -1.1099,0.7076 1.0982,3.5856 2.3458,7.2168 3.6997,10.4199 3.2846,2.3762 7.8898,5.3611 13.1541,7.7785 -0.2216,-1.0128 -0.4527,-2.0423 -0.6843,-3.0744 -1.1157,-4.9713 -2.2451,-10.0037 -2.6963,-15.0563 -0.1456,-1.6316 -0.1658,-3.0348 -0.135,-4.1471 -0.0533,-0.0951 -0.1067,-0.185 -0.1601,-0.265 0,0 -14.7452,-12.6824 -17.954,-14.3632 0,0 0.1898,0.9374 0.5428,2.522z"/>
   <path id="_649737976" class="fil18" d="M105.784 169.683c2.7269,1.7668 5.942,3.6297 9.45,5.2406 -0.1337,-0.6111 -0.271,-1.2283 -0.4096,-1.8485 -2.8738,-0.8781 -5.8916,-1.993 -9.0404,-3.3921z"/>
   <path id="_649737232" class="fil9" d="M118.658 152.088c0.0346,-0.1608 0.072,-0.3198 0.1123,-0.4772 0.1477,-2.2659 0.1453,-15.845 -19.9682,-25.4409 -0.6514,0.5151 -1.6401,1.2485 -2.4804,1.6686 -0.2323,0.1161 -0.4472,0.2129 -0.6833,0.3191l0.0009 0.0021c-1.0789,0.4853 -2.7224,1.2248 -3.115,2.4118 9.3838,5.8034 19.4385,16.0081 22.9867,19.6092l0.1239 0.1258c0.9968,1.0115 1.9968,1.5494 3.0231,1.7815z"/>
   <path id="_649737568" class="fil9" d="M153.77 144.963l0.2051 -5.0973c-4.9947,-0.0711 -15.6075,0.4378 -23.5119,3.7963 -4.3095,1.8309 -7.7772,4.5139 -8.9002,8.4218 0.8618,-0.1486 1.7528,-0.3918 2.6846,-0.6484 0.0198,-0.0064 0.0398,-0.0125 0.0601,-0.0181 0.4321,-0.1191 0.8731,-0.2405 1.3634,-0.3677 4.6436,-1.205 20.3981,-4.494 28.0989,-6.0866z"/>
   <path id="_649737736" class="fil9" d="M168.492 155.867c0.1356,0.5244 0.2489,1.0823 0.3344,1.6784 0.0361,0.2006 0.1613,0.986 0.1342,2.0832 4.082,-1.5576 7.1229,-3.3737 9.3867,-5.2335 2.3927,-1.9659 3.9048,-3.9711 4.8588,-5.757 -1.3098,1.0763 -3.0133,2.2391 -5.2226,3.4052 -2.4692,1.3032 -5.5795,2.6169 -9.4915,3.8237z"/>
   <path id="_649737856" class="fil19" d="M168.952 158.764c0.0118,0.258 0.0166,0.5486 0.0088,0.8651 4.082,-1.5576 7.1229,-3.3737 9.3867,-5.2335 0.4826,-0.3965 0.9292,-0.7946 1.3428,-1.1921 -4.903,3.2017 -8.8523,4.8635 -10.7383,5.5605z"/>
   <path id="_649737424" class="fil9" d="M118.412 125.622c-3.74,0.952 -7.2394,1.0369 -10.9436,1.3762 -1.4236,0.1301 -1.2681,0.0416 -0.159,0.8015 1.0027,0.687 1.9358,1.3839 2.8041,2.0865 0.5562,-0.1426 2.8098,-0.663 5.3531,-0.4552 0.9039,-1.3498 1.9057,-2.5947 2.9454,-3.809z"/>
   <path id="_649737376" class="fil20" d="M108.288 128.489c0.6383,0.4624 1.2464,0.9285 1.8256,1.3972 0.5562,-0.1426 2.8098,-0.663 5.3531,-0.4552 0.4238,-0.6329 0.8691,-1.2427 1.3298,-1.8371 -2.2035,0.2818 -6.8224,0.7329 -8.5085,0.8951z"/>
   <path id="_649737160" class="fil16" d="M124.131 123.34c-0.1138,0.2979 -0.3275,0.5557 -0.6158,0.7204 -0.4561,0.5275 -0.9168,1.0489 -1.3762,1.5689 -2.5913,2.9329 -5.1406,5.8183 -6.5726,9.6779 3.4506,4.2922 4.9558,8.4316 5.5928,11.5456 1.9883,-2.4939 4.8856,-4.3727 8.2016,-5.7816 9.2454,-3.9283 21.867,-4.1728 26.1377,-3.9769 0.7762,0.0334 1.3784,0.69 1.345,1.4662l-0.0008 0.0149 -0.2335 5.8017 1.4315 -0.294c0.085,-0.0201 0.173,-0.0325 0.2634,-0.0364 0.7762,-0.0334 1.4328,0.5688 1.4662,1.345l0.1118 2.5572c0.6212,0.0572 5.1734,0.6296 7.6075,5.2768 3.8199,-1.167 6.8231,-2.4287 9.1817,-3.6735 3.3972,-1.7931 5.435,-3.5374 6.645,-4.8988 1.0571,-1.1888 0.2428,-0.2678 0.5066,-0.5662 1.6287,-1.842 2.4698,-2.7931 3.6468,-1.5846 0.723,0.7423 0.3301,1.921 -0.4822,4.3575l-0.1217 0.365c-0.8733,2.6209 -2.7438,6.0648 -6.7329,9.3421 -2.7484,2.2579 -6.5159,4.4463 -11.678,6.2347 -0.8128,2.6461 -2.8294,5.602 -7.593,7.1357l0.3023 6.0977c0.0771,0.6521 -0.3118,1.2902 -0.9597,1.5035 -5.2106,1.7262 -9.771,2.897 -13.7299,3.6681l0.0147 0.1725c3.6634,-0.2569 7.1626,-0.8167 10.4657,-1.5696 8.1382,-1.8551 15.104,-4.8885 20.4093,-7.4568 4.7217,-2.2856 8.2317,-5.6137 13.303,-9.0259 -0.2066,-0.4567 1.2895,-1.6207 1.615,-2.047 2.5393,-3.3086 4.1843,-5.702 4.9426,-9.2077 0.7721,-3.5693 0.8721,-7.1953 0.7768,-10.7548 -0.071,-2.6521 -0.4454,-5.2928 -0.819,-7.9288 -0.4194,-2.959 -0.8382,-5.913 -0.8493,-9.0477 -0.0022,-0.635 0.0018,-1.2555 0.0058,-1.8679 0.0154,-2.3385 0.0299,-4.5631 -0.3328,-6.9556 -0.9654,-6.3655 -3.2301,-11.3473 -6.1004,-15.241 -3.7315,-5.0619 -8.5037,-8.3099 -12.7794,-10.3738 -7.5661,-3.6523 -16.9769,-4.2511 -25.3335,-1.9079 -7.7265,2.1666 -14.5226,6.8496 -18.0539,13.9549 -1.3235,2.6631 -2.1486,5.3881 -2.9538,8.0473 -1.2072,3.9877 -2.3724,7.8354 -5.1451,11.4709 -0.4875,0.6393 -0.9936,1.261 -1.5093,1.872z"/>
   <path id="_649737904" class="fil15" style="mask:url(#id0)" d="M160.926 171.217l0.1657 3.342c9.9971,-4.8955 17.2846,-8.4946 25.6658,-22.7018 -10.7793,13.055 -21.6335,17.8811 -25.8315,19.3598z"/>
   <path id="_649737616" class="fil15" d="M161.145 175.633l0.0199 0.4021c0.0771,0.6521 -0.3118,1.2902 -0.9597,1.5035 -5.2106,1.7262 -9.771,2.897 -13.7299,3.6681l0.0147 0.1725c3.6634,-0.2569 7.1626,-0.8167 10.4657,-1.5696 8.1382,-1.8551 15.104,-4.8885 20.4093,-7.4568 10.6516,-5.156 17.2558,-8.2383 19.8606,-20.2806 0.7721,-3.5693 0.8721,-7.1953 0.7768,-10.7548 -0.071,-2.6521 -0.4454,-5.2928 -0.819,-7.9288 -0.4194,-2.959 -0.8382,-5.913 -0.8493,-9.0477 -0.0022,-0.635 0.0018,-1.2555 0.0058,-1.8679 0.0154,-2.3385 0.0299,-4.5631 -0.3328,-6.9556 -0.8618,-5.6823 -2.7589,-10.2619 -5.198,-13.9492 -0.0731,0.0239 -0.1423,0.044 -0.2156,0.0681 1.8042,6.3515 0.1603,11.7272 -0.0097,17.9915 -0.0413,1.5231 -0.0233,3.0677 0.0411,4.5364 1.0137,23.1129 -1.0217,46.2782 -29.4799,51.4688z"/>
   <path id="_649737184" class="fil9" d="M122.139 125.629c-2.5913,2.9329 -5.1406,5.8183 -6.5726,9.6779 1.2341,1.5351 2.2192,3.0507 3.0049,4.5067 0.9829,-2.0134 3.1663,-6.2817 5.8206,-10.2004 1.2104,-1.787 2.5188,-3.5014 3.8558,-4.8956 2.0703,-2.159 3.8088,-4.4276 4.7065,-7.029 2.5627,-7.4263 4.4862,-14.1003 9.3782,-18.8687 5.4744,-5.3358 15.2151,-8.0465 22.6404,-7.9425 8.6855,0.1218 17.0285,2.4689 23.8306,7.9903 -3.541,-4.2661 -7.8117,-7.0995 -11.6768,-8.9652 -7.5661,-3.6523 -16.9769,-4.2511 -25.3335,-1.9079 -7.7265,2.1666 -14.5226,6.8496 -18.0539,13.9549 -1.3235,2.6631 -2.1486,5.3881 -2.9538,8.0473 -1.2072,3.9877 -2.3724,7.8354 -5.1451,11.4709 -1.1249,1.4752 -2.2779,2.7765 -3.5013,4.1613z"/>
   <path id="_649737496" class="fil9" d="M196.644 106.819c0.9514,2.4897 1.6907,5.2405 2.1516,8.2797 0.0541,0.357 0.1004,0.7102 0.1398,1.0605 0.0381,0.0194 0.0756,0.0406 0.1125,0.0638 0.0628,0.0394 21.8205,13.6898 31.2679,20.3191 0.402,0.282 0.8514,0.6217 1.3543,1.0017 1.0354,0.7825 2.3044,1.7415 3.5579,2.5098 1.3644,0.8363 2.5035,1.1978 3.4084,1.2113 0.6185,0.0093 1.1147,-0.1506 1.4813,-0.4282 0.3586,-0.2717 0.613,-0.6701 0.7509,-1.1421 0.1808,-0.6189 0.1689,-1.3628 -0.0548,-2.1407 -0.1546,-0.5377 -0.5653,-1.1162 -1.0898,-1.6886 -0.5916,-0.6454 -1.3416,-1.2865 -2.0654,-1.8692 -8.2446,-6.637 -32.2184,-21.702 -41.0146,-27.1771z"/>
   <path id="_649736608" class="fil13" d="M197.641 109.699c0.4804,1.6612 0.8706,3.4257 1.1548,5.2999 0.0541,0.357 0.1004,0.7102 0.1398,1.0605 0.0381,0.0194 0.0756,0.0406 0.1125,0.0638 0.0628,0.0394 21.8205,13.6898 31.2679,20.3191 0.402,0.282 0.8514,0.6217 1.3543,1.0017 1.0354,0.7825 2.3044,1.7415 3.5579,2.5098 1.3644,0.8363 2.5035,1.1978 3.4084,1.2113 0.6185,0.0093 1.1147,-0.1506 1.4813,-0.4282 0.3586,-0.2717 0.613,-0.6701 0.7509,-1.1421 0.1255,-0.4297 0.1582,-0.9197 0.0915,-1.4394l-43.3193 -28.4564z"/>
   <path id="_649737088" class="fil9" d="M247.041 95.9605l8.0723 -7.9086 -4.0046 -3.474c-0.5875,-0.5083 -0.6516,-1.3968 -0.1433,-1.9843 0.5083,-0.5875 1.3968,-0.6516 1.9843,-0.1433l4.1164 3.5711c0.0266,-0.0514 0.0442,-0.0989 0.053,-0.1436 0.0533,-0.2691 -0.0496,-0.7273 -0.2636,-1.4937 -0.1146,-0.4102 -0.2599,-0.8304 -0.4493,-1.2348 -0.1814,-0.3871 -0.4083,-0.7694 -0.6947,-1.1268 -0.4265,-0.5323 -1.009,-1.0064 -1.6658,-1.371 -0.757,-0.4202 -1.5961,-0.6871 -2.3912,-0.7215 -0.6929,-0.0299 -1.343,0.1227 -1.839,0.5202 -0.2373,0.1902 -0.4495,0.4406 -0.626,0.7586l-6.0727 10.9391 3.9242 3.8126z"/>
   <path id="_649737016" class="fil13" d="M247.041 95.9605l8.0723 -7.9086 -4.0046 -3.474c-0.5875,-0.5083 -0.6516,-1.3968 -0.1433,-1.9843 0.5083,-0.5875 1.3968,-0.6516 1.9843,-0.1433l4.1164 3.5711c0.0266,-0.0514 0.0442,-0.0989 0.053,-0.1436 0.0533,-0.2691 -0.0496,-0.7273 -0.2636,-1.4937 -0.1146,-0.4102 -0.2599,-0.8304 -0.4493,-1.2348 -0.1814,-0.3871 -0.4083,-0.7694 -0.6947,-1.1268 -0.4265,-0.5323 -1.009,-1.0064 -1.6658,-1.371l-0.0457 -0.0251c-3.1698,-0.1422 -7.9059,9.3775 -9.5936,12.7745l2.6346 2.5596z"/>
   <path id="_649736992" class="fil21" d="M156.679 92.9991c1.1293,0 2.0451,0.9158 2.0451,2.0451 0,1.1293 -0.9158,2.0451 -2.0451,2.0451 -1.1293,0 -2.0451,-0.9158 -2.0451,-2.0451 0,-1.1293 0.9158,-2.0451 2.0451,-2.0451z"/>
   <path id="_649736776" class="fil3" d="M146.875 107.261c2.32,0 4.1428,2.0747 4.0704,4.6329 -0.0723,2.5582 -2.0125,4.6329 -4.3325,4.6329 -2.3199,0 -4.1427,-2.0747 -4.0703,-4.6329 0.0723,-2.5582 2.0124,-4.6329 4.3324,-4.6329z"/>
   <path id="_649736536" class="fil3" d="M168.924 109.85c2.3487,0 4.1941,2.1004 4.1208,4.6903 -0.0732,2.59 -2.0374,4.6904 -4.3862,4.6904 -2.3487,0 -4.1941,-2.1004 -4.1208,-4.6904 0.0732,-2.5899 2.0374,-4.6903 4.3862,-4.6903z"/>
   <path id="_649736752" class="fil22" d="M138.334 117.044c1.6253,0 2.9434,1.0287 2.9434,2.2972 0,1.2686 -1.3181,2.2973 -2.9434,2.2973 -1.6253,0 -2.9434,-1.0287 -2.9434,-2.2973 0,-1.2685 1.3181,-2.2972 2.9434,-2.2972z"/>
   <path id="_649736920" class="fil21" d="M130.087 126.654c0.9762,0 1.7679,0.7917 1.7679,1.768 0,0.9762 -0.7917,1.7679 -1.7679,1.7679 -0.9763,0 -1.768,-0.7917 -1.768,-1.7679 0,-0.9763 0.7917,-1.768 1.768,-1.768z"/>
   <path id="_649737064" class="fil22" d="M174.898 121.298c1.8575,0 3.3639,1.1488 3.3639,2.5653 0,1.4165 -1.5064,2.5653 -3.3639,2.5653 -1.8575,0 -3.3639,-1.1488 -3.3639,-2.5653 0,-1.4165 1.5064,-2.5653 3.3639,-2.5653z"/>
   <path id="_649737112" class="fil21" d="M178.719 130.004c1.1734,0 2.125,0.9516 2.125,2.125 0,1.1734 -0.9516,2.125 -2.125,2.125 -1.1734,0 -2.125,-0.9516 -2.125,-2.125 0,-1.1734 0.9516,-2.125 2.125,-2.125z"/>
   <path id="_649736896" class="fil21" d="M190.593 133.535c1.1653,0 2.1102,0.9449 2.1102,2.11 0,1.1653 -0.9449,2.1102 -2.1102,2.1102 -1.1651,0 -2.11,-0.9449 -2.11,-2.1102 0,-1.1651 0.9449,-2.11 2.11,-2.11z"/>
   <path id="_649735696" class="fil21" d="M167.735 141.586c1.2263,0 2.2207,0.9944 2.2207,2.2207 0,1.2263 -0.9944,2.2207 -2.2207,2.2207 -1.2263,0 -2.2207,-0.9944 -2.2207,-2.2207 0,-1.2263 0.9944,-2.2207 2.2207,-2.2207z"/>
   <path id="_649736152" class="fil21" d="M187.725 103.476c0.7852,1.0071 0.7324,2.3615 -0.118,3.0244 -0.8504,0.663 -2.1767,0.3839 -2.9619,-0.6232 -0.7852,-1.0072 -0.7324,-2.3616 0.118,-3.0246 0.8503,-0.6629 2.1767,-0.3838 2.9619,0.6234z"/>
   <path id="_649735984" class="fil7" d="M144.193 123.835c-0.3651,-0.8459 0.0247,-1.8277 0.8706,-2.1928 0.8459,-0.3651 1.8277,0.0247 2.1928,0.8706 0.002,0.0046 0.6784,1.6453 2.7412,3.0541 0.2739,0.1871 0.5593,0.3589 0.8534,0.5145 1.9871,1.0519 4.4535,1.4552 6.761,1.1096 2.2131,-0.3316 4.2512,-1.3631 5.4961,-3.1859 0.143,-0.2095 0.2749,-0.4272 0.3944,-0.6529 0.4301,-0.8169 1.4413,-1.1305 2.2582,-0.7004 0.8169,0.4301 1.1305,1.4413 0.7004,2.2582 -0.1826,0.3449 -0.3801,0.6717 -0.5908,0.9803 -1.8171,2.6605 -4.6921,4.1512 -7.7739,4.6129 -2.9872,0.4474 -6.1986,-0.0844 -8.8032,-1.4632 -0.4112,-0.2176 -0.8061,-0.455 -1.1808,-0.7109 -2.869,-1.9594 -3.9163,-4.4869 -3.9194,-4.4941z"/>
   <path id="_649736296" class="fil7" d="M145.191 102.77c-0.5304,0.6339 -1.4745,0.7178 -2.1084,0.1874 -0.6339,-0.5304 -0.7178,-1.4745 -0.1874,-2.1084 0.0073,-0.0088 2.5372,-3.0867 7.0803,-1.9851 0.8021,0.194 1.295,1.0017 1.101,1.8038 -0.194,0.8021 -1.0017,1.295 -1.8038,1.101 -2.7196,-0.6594 -4.0778,0.9966 -4.0817,1.0013z"/>
   <path id="_649735648" class="fil7" d="M177.675 104.9c0.4754,0.6759 0.3128,1.6095 -0.3631,2.0849 -0.6759,0.4754 -1.6095,0.3128 -2.0849,-0.3631l-0.0169 -0.0239c-0.0198,-0.0281 -0.0383,-0.0568 -0.0559,-0.0857 -0.3155,-0.4267 -1.4945,-1.8473 -3.9453,-2.1511 -0.8215,-0.1002 -1.4062,-0.8477 -1.306,-1.6692 0.1002,-0.8215 0.8477,-1.4062 1.6692,-1.306 3.7073,0.4595 5.5454,2.7546 6.0054,3.3857 0.0281,0.0333 0.055,0.0682 0.0806,0.1045l0.0169 0.0239z"/>
   <path id="_649736248" class="fil21" d="M173.958 165.901c0.8661,0 1.5685,0.7024 1.5685,1.5685 0,0.8661 -0.7024,1.5685 -1.5685,1.5685 -0.8661,0 -1.5685,-0.7024 -1.5685,-1.5685 0,-0.8661 0.7024,-1.5685 1.5685,-1.5685z"/>
   <path id="_649736224" class="fil3" d="M45.4493 83.7994c1.5268,-1.3003 3.0439,-2.0468 3.3879,-1.6672 0.344,0.3797 -0.6152,1.742 -2.1419,3.0422 -1.5267,1.3002 -3.0678,2.0802 -3.4118,1.7006 -0.344,-0.3796 0.6391,-1.7754 2.1658,-3.0756z"/>
   <path id="_649736008" class="fil14" d="M247.041 95.9605l8.0723 -7.9086 -3.871 -3.3581c-2.2834,3.5485 -4.9909,8.3982 -5.7472,9.7648l1.5459 1.5019zm5.7915 -13.6013c0.0402,0.028 0.0793,0.0583 0.1172,0.0911l4.1164 3.5711c0.0266,-0.0514 0.0442,-0.0989 0.053,-0.1436 0.0533,-0.2691 -0.0496,-0.7273 -0.2636,-1.4937 -0.1146,-0.4102 -0.2599,-0.8304 -0.4493,-1.2348 -0.1814,-0.3871 -0.4083,-0.7694 -0.6947,-1.1268 -0.3748,-0.4678 -0.8701,-0.8907 -1.4305,-1.2337l-0.0198 0.01c-0.3299,0.1821 -0.8303,0.751 -1.4287,1.5604z"/>
   <path id="_649735768" class="fil14" d="M198.083 111.463c0.2823,1.1636 0.5216,2.3749 0.7128,3.6359 0.0541,0.357 0.1004,0.7102 0.1398,1.0605 0.0381,0.0194 0.0756,0.0406 0.1125,0.0638 0.0628,0.0394 21.8205,13.6898 31.2679,20.3191 0.402,0.282 0.8514,0.6217 1.3543,1.0017 1.0354,0.7825 2.3044,1.7415 3.5579,2.5098 1.3644,0.8363 2.5035,1.1978 3.4084,1.2113 0.6185,0.0093 1.1147,-0.1506 1.4813,-0.4282 0.3586,-0.2717 0.613,-0.6701 0.7509,-1.1421 0.0103,-0.0352 0.0198,-0.0708 0.0289,-0.1068l-42.8147 -28.125z"/>
   <path id="_649736344" class="fil0" d="M90.7765 141.971c0.8649,0.5916 1.9743,1.386 3.0257,2.0527 1.1945,0.7572 2.206,1.1498 3.0988,1.9774 4.0075,3.7138 -1.586,4.4876 -4.8649,4.3104 0,0 1.9864,2.5212 6.1884,2.1392 -2.129,4.772 -8.2504,0.1171 -9.6426,-3.2647 -0.5574,-1.3539 -0.8175,-2.7726 -0.7365,-4.1662 0.1225,-2.1077 0.2741,-4.8664 2.9311,-3.0488z"/>
   <path id="_649734952" class="fil23" d="M97.8448 153.143c-1.7752,2.6493 -5.2755,0.9621 -7.5089,-1.3916 1.6274,1.1709 4.5339,2.6805 7.5089,1.3916z"/>
   <path id="_649735336" class="fil0" d="M160.238 151.276c0,0 0.5348,2.4448 0.3056,3.5144 0,0 -2.674,3.2088 -10.3904,2.4448 -2.8851,-0.2455 -2.0097,2.1621 -0.3316,3.0464 0.6372,0.3357 1.5276,0.7139 2.6535,0.9742 0,0 -3.2492,-0.0382 -4.9694,-0.4594 0,0 1.6739,2.6346 5.5381,3.1491 1.4867,0.1974 1.703,1.6831 0.0256,1.6219 -1.0266,-0.0376 -3.2414,-0.1669 -4.5316,-0.5976 1.8533,5.2516 11.2912,3.4158 14.6381,0.4468 2.2899,-2.0316 3.2437,-5.0225 2.3572,-8.4803 -0.6058,-2.3633 -2.0477,-5.2857 -5.2951,-5.6603z"/>
   <path id="_649735168" class="fil23" d="M154.144 165.21c-0.1588,0.2225 -0.5088,0.3779 -1.0746,0.3573 -1.0266,-0.0376 -3.2414,-0.1669 -4.5316,-0.5976 1.8533,5.2516 11.2912,3.4158 14.6381,0.4468 1.6086,-1.4271 2.5578,-3.3277 2.6729,-5.5309 -4.035,4.5724 -8.9684,5.3159 -11.7048,5.3244z"/>
   <path id="_649735504" class="fil3" d="M93.1097 128.643c9.1796,5.107 18.0005,9.5985 24.8304,21.9752 0,0 -1.6044,-12.606 -22.538,-23.3784l-1.4516 0.764 -0.8408 0.6392z"/>
   <path id="_649735216" class="fil3" d="M154.689 141.479c0,0 -20.0165,0.4299 -32.0113,9.6743 0.3314,-0.1246 7.3876,-4.1501 19.6961,-6.2894 3.841,-0.6675 8.1315,-1.0864 12.7736,-1.3221l0.9168 -1.6044 -1.3752 -0.4584z"/>
  </g>
 </g>
</svg>
